SplineFontDB: 3.2
FontName: HelveticaNeueMedium1
FullName: HelveticaNeue1Medium1
FamilyName: HelveticaNeue1
Weight: Medium
Copyright: Copyright (c) 1988, 1990 Adobe Systems Incorporated.  All Rights Reserved.Helvetica is a registered trademark of Linotype AG and/or its subsidiaries.
Version: Macromedia Fontographer 4.1 11/5/98
ItalicAngle: 0
UnderlinePosition: -125
UnderlineWidth: 50
Ascent: 800
Descent: 200
InvalidEm: 0
sfntRevision: 0x00010000
LayerCount: 2
Layer: 0 1 "Back" 1
Layer: 1 1 "Fore" 0
XUID: [1021 767 -2019014938 4973]
StyleMap: 0x0040
FSType: 0
OS2Version: 1
OS2_WeightWidthSlopeOnly: 0
OS2_UseTypoMetrics: 0
CreationTime: 910269844
ModificationTime: 1589914247
PfmFamily: 81
TTFWeight: 400
TTFWidth: 5
LineGap: 0
VLineGap: 0
Panose: 0 0 4 0 0 0 0 0 0 0
OS2TypoAscent: 952
OS2TypoAOffset: 0
OS2TypoDescent: -221
OS2TypoDOffset: 0
OS2TypoLinegap: 0
OS2WinAscent: 952
OS2WinAOffset: 0
OS2WinDescent: 221
OS2WinDOffset: 0
HheadAscent: 952
HheadAOffset: 0
HheadDescent: -221
HheadDOffset: 0
OS2SubXSize: 700
OS2SubYSize: 650
OS2SubXOff: 0
OS2SubYOff: 143
OS2SupXSize: 700
OS2SupYSize: 650
OS2SupXOff: 0
OS2SupYOff: 453
OS2StrikeYSize: 50
OS2StrikeYPos: 259
OS2Vendor: 'MACR'
OS2CodePages: 00000001.00000000
OS2UnicodeRanges: 00000003.00000000.00000000.00000000
MarkAttachClasses: 1
DEI: 91125
TtTable: prep
NPUSHB
 15
 6
 6
 5
 5
 4
 4
 3
 3
 2
 2
 1
 1
 0
 0
 1
SCANTYPE
PUSHW_1
 511
SCANCTRL
RCVT
ROUND[Grey]
WCVTP
RCVT
ROUND[Grey]
WCVTP
RCVT
ROUND[Grey]
WCVTP
RCVT
ROUND[Grey]
WCVTP
RCVT
ROUND[Grey]
WCVTP
RCVT
ROUND[Grey]
WCVTP
RCVT
ROUND[Grey]
WCVTP
PUSHB_2
 7
 7
RCVT
ROUND[Grey]
WCVTP
EndTTInstrs
TtTable: fpgm
NPUSHB
 1
 0
FDEF
SROUND
RCVT
DUP
PUSHB_1
 3
CINDEX
RCVT
SWAP
SUB
ROUND[Grey]
RTG
SWAP
ROUND[Grey]
ADD
WCVTP
ENDF
EndTTInstrs
ShortTable: cvt  12
  -198
  -9
  269
  378
  524
  700
  723
  114
  23138
  23138
  2
  4
EndShort
ShortTable: maxp 16
  1
  0
  232
  76
  7
  74
  4
  2
  8
  64
  10
  0
  96
  185
  2
  1
EndShort

StartChar: .notdef
Encoding: 65536 -1 0
Width: 500
Flags: W
LayerCount: 2
Fore
SplineSet
63 0 m 1,0,-1
 63 798 l 1,1,-1
 438 798 l 1,2,-1
 438 0 l 1,3,-1
 63 0 l 1,0,-1
125 63 m 1,4,-1
 375 63 l 1,5,-1
 375 736 l 1,6,-1
 125 736 l 1,7,-1
 125 63 l 1,4,-1
EndSplineSet
EndChar

StartChar: exclam
Encoding: 33 33 4
Width: 278
Flags: W
LayerCount: 2
Fore
SplineSet
77 508 m 1,0,-1
 77 714 l 1,1,-1
 202 714 l 1,2,-1
 202 508 l 1,3,-1
 169 199 l 1,4,-1
 110 199 l 1,5,-1
 77 508 l 1,0,-1
72 0 m 1,6,-1
 72 125 l 1,7,-1
 206 125 l 1,8,-1
 206 0 l 1,9,-1
 72 0 l 1,6,-1
EndSplineSet
EndChar

StartChar: quotedbl
Encoding: 34 34 5
Width: 444
Flags: W
LayerCount: 2
Fore
SplineSet
83 432 m 1,0,-1
 83 714 l 1,1,-1
 185 714 l 1,2,-1
 185 432 l 1,3,-1
 83 432 l 1,0,-1
259 432 m 1,4,-1
 259 714 l 1,5,-1
 361 714 l 1,6,-1
 361 432 l 1,7,-1
 259 432 l 1,4,-1
EndSplineSet
EndChar

StartChar: numbersign
Encoding: 35 35 6
Width: 556
Flags: W
LayerCount: 2
Fore
SplineSet
495 285 m 1,0,-1
 495 210 l 1,1,-1
 400 210 l 1,2,-1
 370 0 l 1,3,-1
 290 0 l 1,4,-1
 319 210 l 1,5,-1
 209 210 l 1,6,-1
 179 0 l 1,7,-1
 99 0 l 1,8,-1
 128 210 l 1,9,-1
 34 210 l 1,10,-1
 34 285 l 1,11,-1
 139 285 l 1,12,-1
 157 415 l 1,13,-1
 63 415 l 1,14,-1
 63 490 l 1,15,-1
 167 490 l 1,16,-1
 196 700 l 1,17,-1
 277 700 l 1,18,-1
 247 490 l 1,19,-1
 358 490 l 1,20,-1
 387 700 l 1,21,-1
 468 700 l 1,22,-1
 438 490 l 1,23,-1
 524 490 l 1,24,-1
 524 415 l 1,25,-1
 428 415 l 1,26,-1
 410 285 l 1,27,-1
 495 285 l 1,0,-1
348 415 m 1,28,-1
 237 415 l 1,29,-1
 219 285 l 1,30,-1
 330 285 l 1,31,-1
 348 415 l 1,28,-1
EndSplineSet
EndChar

StartChar: dollar
Encoding: 36 36 7
Width: 556
Flags: W
LayerCount: 2
Fore
SplineSet
302 306 m 1,0,-1
 302 73 l 1,1,2
 425 82 425 82 425 192 c 0,3,4
 425 243 425 243 387 271 c 0,5,6
 360 291 360 291 302 306 c 1,0,-1
17 217 m 1,7,-1
 131 217 l 1,8,9
 129 77 129 77 259 73 c 1,10,-1
 259 315 l 1,11,12
 154 344 154 344 105 382 c 0,13,14
 32 437 32 437 32 535 c 0,15,16
 32 626 32 626 101 681 c 0,17,18
 165 731 165 731 259 731 c 1,19,-1
 259 809 l 1,20,-1
 302 809 l 1,21,-1
 302 731 l 1,22,23
 397 731 397 731 457 683 c 0,24,25
 521 631 521 631 521 536 c 1,26,-1
 407 536 l 1,27,28
 402 641 402 641 302 641 c 1,29,-1
 302 430 l 1,30,31
 414 400 414 400 466 361 c 0,32,33
 539 306 539 306 539 208 c 0,34,35
 539 101 539 101 470 42 c 0,36,37
 408 -12 408 -12 302 -17 c 1,38,-1
 302 -95 l 1,39,-1
 259 -95 l 1,40,-1
 259 -17 l 1,41,42
 148 -15 148 -15 82 46.5 c 128,-1,43
 16 108 16 108 17 217 c 1,7,-1
259 441 m 1,44,-1
 259 641 l 1,45,46
 146 641 146 641 146 543 c 0,47,48
 146 469 146 469 259 441 c 1,44,-1
EndSplineSet
EndChar

StartChar: percent
Encoding: 37 37 8
Width: 1000
Flags: W
LayerCount: 2
Fore
SplineSet
260 -24 m 1,0,-1
 649 724 l 1,1,-1
 725 724 l 1,2,-1
 338 -24 l 1,3,-1
 260 -24 l 1,0,-1
751 -14 m 256,4,5
 665 -14 665 -14 622 45 c 0,6,7
 584 96 584 96 584 185 c 0,8,9
 584 272 584 272 624 325 c 0,10,11
 668 384 668 384 751 384 c 256,12,13
 834 384 834 384 878 325 c 0,14,15
 918 272 918 272 918 185 c 0,16,17
 918 96 918 96 880 45 c 0,18,19
 837 -14 837 -14 751 -14 c 256,4,5
674 185 m 256,20,21
 674 51 674 51 750 51 c 0,22,23
 828 51 828 51 828 185 c 256,24,25
 828 319 828 319 750 319 c 0,26,27
 674 319 674 319 674 185 c 256,20,21
249 316 m 256,28,29
 163 316 163 316 120 375 c 0,30,31
 82 426 82 426 82 515 c 0,32,33
 82 602 82 602 122 655 c 0,34,35
 166 714 166 714 249 714 c 256,36,37
 332 714 332 714 376 655 c 0,38,39
 416 602 416 602 416 515 c 0,40,41
 416 426 416 426 378 375 c 0,42,43
 335 316 335 316 249 316 c 256,28,29
172 515 m 256,44,45
 172 381 172 381 248 381 c 0,46,47
 326 381 326 381 326 515 c 256,48,49
 326 649 326 649 248 649 c 0,50,51
 172 649 172 649 172 515 c 256,44,45
EndSplineSet
EndChar

StartChar: ampersand
Encoding: 38 38 9
Width: 648
Flags: W
LayerCount: 2
Fore
SplineSet
302 646 m 0,0,1
 270 646 270 646 248 624 c 128,-1,2
 226 602 226 602 226 567 c 0,3,4
 226 537 226 537 249 503 c 0,5,6
 270 476 270 476 291 448 c 1,7,8
 332 476 332 476 349 496 c 0,9,10
 375 526 375 526 375 564 c 0,11,12
 375 600 375 600 355 623 c 128,-1,13
 335 646 335 646 302 646 c 0,0,1
396 156 m 1,14,-1
 256 330 l 1,15,16
 189 289 189 289 185 285 c 0,17,18
 146 251 146 251 146 196 c 0,19,20
 146 140 146 140 178 108 c 128,-1,21
 210 76 210 76 261 76 c 0,22,23
 315 76 315 76 351 105 c 0,24,25
 367 117 367 117 396 156 c 1,14,-1
522 0 m 1,26,-1
 457 80 l 1,27,28
 380 -14 380 -14 257 -14 c 0,29,30
 157 -14 157 -14 94.5 42.5 c 128,-1,31
 32 99 32 99 32 198 c 0,32,33
 32 321 32 321 196 405 c 1,34,35
 124 496 124 496 124 561 c 0,36,37
 124 637 124 637 174.5 684 c 128,-1,38
 225 731 225 731 299 731 c 256,39,40
 373 731 373 731 423 688 c 0,41,42
 477 641 477 641 477 560 c 0,43,44
 477 448 477 448 348 379 c 1,45,-1
 459 245 l 1,46,47
 475 290 475 290 481 341 c 1,48,-1
 581 341 l 1,49,50
 569 235 569 235 525 166 c 1,51,-1
 662 0 l 1,52,-1
 522 0 l 1,26,-1
EndSplineSet
EndChar

StartChar: quotesingle
Encoding: 39 39 10
Width: 278
Flags: W
LayerCount: 2
Fore
SplineSet
88 432 m 1,0,-1
 88 714 l 1,1,-1
 190 714 l 1,2,-1
 190 432 l 1,3,-1
 88 432 l 1,0,-1
EndSplineSet
EndChar

StartChar: parenleft
Encoding: 40 40 11
Width: 278
Flags: W
LayerCount: 2
Fore
SplineSet
286 -191 m 1,0,-1
 193 -191 l 1,1,2
 49 38 49 38 49 270 c 0,3,4
 49 509 49 509 193 731 c 1,5,-1
 286 731 l 1,6,7
 163 511 163 511 163 270 c 0,8,9
 163 17 163 17 286 -191 c 1,0,-1
EndSplineSet
EndChar

StartChar: parenright
Encoding: 41 41 12
Width: 278
Flags: W
LayerCount: 2
Fore
SplineSet
-8 731 m 1,0,-1
 85 731 l 1,1,2
 229 501 229 501 229 269 c 0,3,4
 229 29 229 29 85 -191 c 1,5,-1
 -8 -191 l 1,6,7
 115 27 115 27 115 269 c 0,8,9
 115 522 115 522 -8 731 c 1,0,-1
EndSplineSet
EndChar

StartChar: asterisk
Encoding: 42 42 13
Width: 370
Flags: W
LayerCount: 2
Fore
SplineSet
130 534 m 1,0,-1
 19 572 l 1,1,-1
 41 637 l 1,2,-1
 151 594 l 1,3,-1
 151 714 l 1,4,-1
 219 714 l 1,5,-1
 219 594 l 1,6,-1
 328 637 l 1,7,-1
 352 572 l 1,8,-1
 238 534 l 1,9,-1
 308 440 l 1,10,-1
 255 401 l 1,11,-1
 184 499 l 1,12,-1
 116 401 l 1,13,-1
 60 440 l 1,14,-1
 130 534 l 1,0,-1
EndSplineSet
EndChar

StartChar: plus
Encoding: 43 43 14
Width: 600
Flags: W
LayerCount: 2
Fore
SplineSet
249 304 m 1,0,-1
 249 506 l 1,1,-1
 351 506 l 1,2,-1
 351 304 l 1,3,-1
 552 304 l 1,4,-1
 552 202 l 1,5,-1
 351 202 l 1,6,-1
 351 0 l 1,7,-1
 249 0 l 1,8,-1
 249 202 l 1,9,-1
 48 202 l 1,10,-1
 48 304 l 1,11,-1
 249 304 l 1,0,-1
EndSplineSet
EndChar

StartChar: comma
Encoding: 44 44 15
Width: 278
Flags: W
LayerCount: 2
Fore
SplineSet
69 0 m 1,0,-1
 69 135 l 1,1,-1
 208 135 l 1,2,-1
 208 0 l 2,3,4
 208 -61 208 -61 170.5 -103.5 c 128,-1,5
 133 -146 133 -146 73 -158 c 1,6,-1
 73 -97 l 1,7,8
 105 -89 105 -89 122 -61.5 c 128,-1,9
 139 -34 139 -34 138 0 c 1,10,-1
 69 0 l 1,0,-1
EndSplineSet
EndChar

StartChar: hyphen
Encoding: 45 45 16
AltUni2: 002010.ffffffff.0
Width: 389
Flags: W
LayerCount: 2
Fore
SplineSet
49 218 m 1,0,-1
 49 326 l 1,1,-1
 340 326 l 1,2,-1
 340 218 l 1,3,-1
 49 218 l 1,0,-1
EndSplineSet
EndChar

StartChar: period
Encoding: 46 46 17
Width: 278
Flags: W
LayerCount: 2
Fore
SplineSet
69 0 m 1,0,-1
 69 135 l 1,1,-1
 208 135 l 1,2,-1
 208 0 l 1,3,-1
 69 0 l 1,0,-1
EndSplineSet
EndChar

StartChar: slash
Encoding: 47 47 18
Width: 352
Flags: W
LayerCount: 2
Fore
SplineSet
-22 -17 m 1,0,-1
 265 731 l 1,1,-1
 374 731 l 1,2,-1
 87 -17 l 1,3,-1
 -22 -17 l 1,0,-1
EndSplineSet
EndChar

StartChar: zero
Encoding: 48 48 19
Width: 556
Flags: W
LayerCount: 2
Fore
SplineSet
278 81 m 256,0,1
 406 81 406 81 406 350 c 256,2,3
 406 619 406 619 278 619 c 256,4,5
 150 619 150 619 150 350 c 256,6,7
 150 81 150 81 278 81 c 256,0,1
278 714 m 256,8,9
 414 714 414 714 474 592 c 0,10,11
 520 500 520 500 520 350 c 256,12,13
 520 200 520 200 474 108 c 0,14,15
 414 -14 414 -14 278 -14 c 256,16,17
 142 -14 142 -14 82 108 c 0,18,19
 36 200 36 200 36 350 c 256,20,21
 36 500 36 500 82 592 c 0,22,23
 142 714 142 714 278 714 c 256,8,9
EndSplineSet
EndChar

StartChar: one
Encoding: 49 49 20
Width: 556
Flags: W
LayerCount: 2
Fore
SplineSet
53 494 m 1,0,-1
 53 584 l 1,1,2
 131 583 131 583 185 610 c 0,3,4
 245 641 245 641 257 700 c 1,5,-1
 350 700 l 1,6,-1
 350 0 l 1,7,-1
 225 0 l 1,8,-1
 225 494 l 1,9,-1
 53 494 l 1,0,-1
EndSplineSet
EndChar

StartChar: two
Encoding: 50 50 21
Width: 556
Flags: W
LayerCount: 2
Fore
SplineSet
517 102 m 1,0,-1
 517 0 l 1,1,-1
 39 0 l 1,2,3
 40 159 40 159 193 265 c 0,4,5
 241 297 241 297 288 329 c 0,6,7
 342 367 342 367 369 401 c 0,8,9
 403 445 403 445 404 495 c 0,10,11
 405 543 405 543 382 576 c 0,12,13
 352 619 352 619 286 619 c 0,14,15
 171 619 171 619 166 444 c 1,16,-1
 52 444 l 1,17,18
 52 564 52 564 114 637 c 0,19,20
 179 714 179 714 293 714 c 0,21,22
 409 714 409 714 470 640 c 0,23,24
 518 581 518 581 518 499 c 0,25,26
 518 372 518 372 362 263 c 0,27,28
 304 224 304 224 246 185 c 1,29,30
 189 141 189 141 176 102 c 1,31,-1
 517 102 l 1,0,-1
EndSplineSet
EndChar

StartChar: three
Encoding: 51 51 22
Width: 556
Flags: W
LayerCount: 2
Fore
SplineSet
228 325 m 1,0,-1
 228 410 l 1,1,2
 293 407 293 407 334 432 c 0,3,4
 383 460 383 460 383 520 c 0,5,6
 383 564 383 564 352.5 591.5 c 128,-1,7
 322 619 322 619 274 619 c 0,8,9
 218 619 218 619 187 576.5 c 128,-1,10
 156 534 156 534 158 476 c 1,11,-1
 44 476 l 1,12,13
 49 581 49 581 109 646 c 0,14,15
 173 714 173 714 276 714 c 0,16,17
 365 714 365 714 427 667 c 0,18,19
 497 615 497 615 497 527 c 0,20,21
 497 412 497 412 398 377 c 1,22,-1
 398 375 l 1,23,24
 457 363 457 363 491 315.5 c 128,-1,25
 525 268 525 268 525 200 c 0,26,27
 525 104 525 104 451 44 c 0,28,29
 381 -14 381 -14 277 -14 c 0,30,31
 159 -14 159 -14 94 53 c 0,32,33
 33 117 33 117 31 230 c 1,34,-1
 145 230 l 1,35,36
 143 164 143 164 177 124 c 0,37,38
 212 81 212 81 277 81 c 0,39,40
 336 81 336 81 373.5 114.5 c 128,-1,41
 411 148 411 148 411 206 c 0,42,43
 411 333 411 333 228 325 c 1,0,-1
EndSplineSet
EndChar

StartChar: four
Encoding: 52 52 23
Width: 556
Flags: W
LayerCount: 2
Fore
SplineSet
522 256 m 1,0,-1
 522 166 l 1,1,-1
 432 166 l 1,2,-1
 432 0 l 1,3,-1
 324 0 l 1,4,-1
 324 166 l 1,5,-1
 24 166 l 1,6,-1
 24 279 l 1,7,-1
 324 700 l 1,8,-1
 432 700 l 1,9,-1
 432 256 l 1,10,-1
 522 256 l 1,0,-1
322 564 m 1,11,-1
 112 256 l 1,12,-1
 324 256 l 1,13,-1
 324 564 l 1,14,-1
 322 564 l 1,11,-1
EndSplineSet
EndChar

StartChar: five
Encoding: 53 53 24
Width: 556
Flags: W
LayerCount: 2
Fore
SplineSet
48 317 m 1,0,-1
 123 700 l 1,1,-1
 485 700 l 1,2,-1
 485 598 l 1,3,-1
 208 598 l 1,4,-1
 172 420 l 1,5,-1
 174 418 l 1,6,7
 222 471 222 471 303 471 c 0,8,9
 405 471 405 471 465 404 c 0,10,11
 522 340 522 340 522 237 c 0,12,13
 522 140 522 140 466 70 c 0,14,15
 399 -14 399 -14 280 -14 c 0,16,17
 175 -14 175 -14 109 40 c 0,18,19
 39 97 39 97 35 199 c 1,20,-1
 149 199 l 1,21,22
 154 143 154 143 188 112 c 128,-1,23
 222 81 222 81 278 81 c 0,24,25
 408 81 408 81 408 235 c 0,26,27
 408 297 408 297 376 337 c 0,28,29
 340 381 340 381 275 381 c 0,30,31
 186 381 186 381 162 317 c 1,32,-1
 48 317 l 1,0,-1
EndSplineSet
EndChar

StartChar: six
Encoding: 54 54 25
Width: 556
Flags: W
LayerCount: 2
Fore
SplineSet
285 81 m 0,0,1
 343 81 343 81 377 126 c 0,2,3
 408 167 408 167 408 227 c 256,4,5
 408 287 408 287 376 328.5 c 128,-1,6
 344 370 344 370 285 370 c 0,7,8
 225 370 225 370 191 327 c 0,9,10
 159 288 159 288 159 227 c 256,11,12
 159 166 159 166 191 126 c 0,13,14
 226 81 226 81 285 81 c 0,0,1
509 523 m 1,15,-1
 395 523 l 1,16,17
 391 566 391 566 364 592.5 c 128,-1,18
 337 619 337 619 293 619 c 0,19,20
 212 619 212 619 177 534 c 0,21,22
 156 483 156 483 148 379 c 1,23,-1
 150 377 l 1,24,25
 197 460 197 460 301 460 c 0,26,27
 403 460 403 460 464 393 c 0,28,29
 522 328 522 328 522 225 c 256,30,31
 522 122 522 122 457.5 54 c 128,-1,32
 393 -14 393 -14 289 -14 c 0,33,34
 146 -14 146 -14 84 93 c 0,35,36
 34 180 34 180 34 352 c 0,37,38
 34 498 34 498 92 596 c 0,39,40
 162 714 162 714 298 714 c 0,41,42
 383 714 383 714 444 660.5 c 128,-1,43
 505 607 505 607 509 523 c 1,15,-1
EndSplineSet
EndChar

StartChar: seven
Encoding: 55 55 26
Width: 556
Flags: W
LayerCount: 2
Fore
SplineSet
35 598 m 1,0,-1
 35 700 l 1,1,-1
 514 700 l 1,2,-1
 514 605 l 1,3,4
 277 337 277 337 253 0 c 1,5,-1
 128 0 l 1,6,7
 139 159 139 159 215 321 c 0,8,9
 285 470 285 470 398 598 c 1,10,-1
 35 598 l 1,0,-1
EndSplineSet
EndChar

StartChar: eight
Encoding: 56 56 27
Width: 556
Flags: W
LayerCount: 2
Fore
SplineSet
278 76 m 256,0,1
 336 76 336 76 373.5 111 c 128,-1,2
 411 146 411 146 411 206 c 0,3,4
 411 263 411 263 373.5 296 c 128,-1,5
 336 329 336 329 278 329 c 256,6,7
 220 329 220 329 182.5 296 c 128,-1,8
 145 263 145 263 145 206 c 0,9,10
 145 146 145 146 182.5 111 c 128,-1,11
 220 76 220 76 278 76 c 256,0,1
278 -14 m 256,12,13
 169 -14 169 -14 100 45.5 c 128,-1,14
 31 105 31 105 31 206 c 0,15,16
 31 271 31 271 65.5 316.5 c 128,-1,17
 100 362 100 362 159 377 c 1,18,-1
 159 378 l 1,19,20
 60 417 60 417 60 523 c 0,21,22
 60 613 60 613 117 663.5 c 128,-1,23
 174 714 174 714 278 714 c 256,24,25
 382 714 382 714 439 663.5 c 128,-1,26
 496 613 496 613 496 523 c 0,27,28
 496 417 496 417 397 378 c 1,29,-1
 397 377 l 1,30,31
 456 362 456 362 490.5 316.5 c 128,-1,32
 525 271 525 271 525 206 c 0,33,34
 525 105 525 105 456 45.5 c 128,-1,35
 387 -14 387 -14 278 -14 c 256,12,13
278 624 m 256,36,37
 230 624 230 624 199 595.5 c 128,-1,38
 168 567 168 567 168 517 c 0,39,40
 168 469 168 469 198.5 441.5 c 128,-1,41
 229 414 229 414 278 414 c 256,42,43
 327 414 327 414 357.5 441.5 c 128,-1,44
 388 469 388 469 388 517 c 0,45,46
 388 567 388 567 357 595.5 c 128,-1,47
 326 624 326 624 278 624 c 256,36,37
EndSplineSet
EndChar

StartChar: nine
Encoding: 57 57 28
Width: 556
Flags: W
LayerCount: 2
Fore
SplineSet
270 619 m 0,0,1
 211 619 211 619 178 576 c 0,2,3
 148 537 148 537 148 476 c 0,4,5
 148 414 148 414 178 374 c 0,6,7
 211 329 211 329 270 329 c 0,8,9
 331 329 331 329 365 374 c 0,10,11
 397 414 397 414 397 476 c 0,12,13
 397 536 397 536 364 577.5 c 128,-1,14
 331 619 331 619 270 619 c 0,0,1
47 177 m 1,15,-1
 161 177 l 1,16,17
 165 134 165 134 192 107.5 c 128,-1,18
 219 81 219 81 263 81 c 0,19,20
 344 81 344 81 379 167 c 0,21,22
 400 217 400 217 408 321 c 1,23,-1
 406 323 l 1,24,25
 359 239 359 239 255 239 c 0,26,27
 156 239 156 239 95 303.5 c 128,-1,28
 34 368 34 368 34 475 c 0,29,30
 34 580 34 580 98.5 647 c 128,-1,31
 163 714 163 714 275 714 c 0,32,33
 413 714 413 714 473 608 c 0,34,35
 522 520 522 520 522 348 c 0,36,37
 522 202 522 202 464 104 c 0,38,39
 394 -14 394 -14 258 -14 c 0,40,41
 173 -14 173 -14 112 39.5 c 128,-1,42
 51 93 51 93 47 177 c 1,15,-1
EndSplineSet
EndChar

StartChar: colon
Encoding: 58 58 29
Width: 278
Flags: W
LayerCount: 2
Fore
SplineSet
69 371 m 1,0,-1
 69 506 l 1,1,-1
 208 506 l 1,2,-1
 208 371 l 1,3,-1
 69 371 l 1,0,-1
69 0 m 1,4,-1
 69 135 l 1,5,-1
 208 135 l 1,6,-1
 208 0 l 1,7,-1
 69 0 l 1,4,-1
EndSplineSet
EndChar

StartChar: semicolon
Encoding: 59 59 30
Width: 278
Flags: W
LayerCount: 2
Fore
SplineSet
69 0 m 1,0,-1
 69 135 l 1,1,-1
 208 135 l 1,2,-1
 208 0 l 2,3,4
 208 -61 208 -61 170.5 -103.5 c 128,-1,5
 133 -146 133 -146 73 -158 c 1,6,-1
 73 -97 l 1,7,8
 105 -89 105 -89 122 -61.5 c 128,-1,9
 139 -34 139 -34 138 0 c 1,10,-1
 69 0 l 1,0,-1
69 371 m 1,11,-1
 69 506 l 1,12,-1
 208 506 l 1,13,-1
 208 371 l 1,14,-1
 69 371 l 1,11,-1
EndSplineSet
EndChar

StartChar: less
Encoding: 60 60 31
Width: 600
Flags: W
LayerCount: 2
Fore
SplineSet
554 94 m 1,0,-1
 554 -8 l 1,1,-1
 46 217 l 1,2,-1
 46 289 l 1,3,-1
 554 514 l 1,4,-1
 554 412 l 1,5,-1
 180 253 l 1,6,-1
 554 94 l 1,0,-1
EndSplineSet
EndChar

StartChar: equal
Encoding: 61 61 32
Width: 600
Flags: W
LayerCount: 2
Fore
SplineSet
552 405 m 1,0,-1
 552 303 l 1,1,-1
 48 303 l 1,2,-1
 48 405 l 1,3,-1
 552 405 l 1,0,-1
552 203 m 1,4,-1
 552 101 l 1,5,-1
 48 101 l 1,6,-1
 48 203 l 1,7,-1
 552 203 l 1,4,-1
EndSplineSet
EndChar

StartChar: greater
Encoding: 62 62 33
Width: 600
Flags: W
LayerCount: 2
Fore
SplineSet
46 94 m 1,0,-1
 420 253 l 1,1,-1
 46 412 l 1,2,-1
 46 514 l 1,3,-1
 554 289 l 1,4,-1
 554 217 l 1,5,-1
 46 -8 l 1,6,-1
 46 94 l 1,0,-1
EndSplineSet
EndChar

StartChar: question
Encoding: 63 63 34
Width: 556
Flags: W
LayerCount: 2
Fore
SplineSet
163 487 m 1,0,-1
 49 487 l 1,1,2
 48 598 48 598 113.5 664.5 c 128,-1,3
 179 731 179 731 289 731 c 0,4,5
 384 731 384 731 445.5 677 c 128,-1,6
 507 623 507 623 507 529 c 0,7,8
 507 467 507 467 479 425 c 0,9,10
 464 401 464 401 419 363 c 0,11,12
 371 323 371 323 356 298 c 0,13,14
 331 259 331 259 331 194 c 1,15,-1
 223 194 l 1,16,17
 223 277 223 277 242 322 c 0,18,19
 258 360 258 360 301 397 c 0,20,21
 348 438 348 438 358 450 c 0,22,23
 382 481 382 481 382 525 c 0,24,25
 382 580 382 580 347 611 c 0,26,27
 318 636 318 636 284 636 c 0,28,29
 163 636 163 636 163 487 c 1,0,-1
208 0 m 1,30,-1
 208 125 l 1,31,-1
 342 125 l 1,32,-1
 342 0 l 1,33,-1
 208 0 l 1,30,-1
EndSplineSet
EndChar

StartChar: at
Encoding: 64 64 35
Width: 800
Flags: W
LayerCount: 2
Fore
SplineSet
361 216 m 0,0,1
 417 216 417 216 459 278 c 0,2,3
 498 334 498 334 498 394 c 0,4,5
 498 429 498 429 474.5 455.5 c 128,-1,6
 451 482 451 482 419 482 c 0,7,8
 361 482 361 482 319 423 c 0,9,10
 281 369 281 369 281 307 c 0,11,12
 281 267 281 267 303 241.5 c 128,-1,13
 325 216 325 216 361 216 c 0,0,1
615 542 m 1,14,-1
 543 279 l 2,15,16
 535 248 535 248 535 234 c 0,17,18
 535 210 535 210 553 210 c 0,19,20
 601 210 601 210 641 272 c 0,21,22
 683 338 683 338 683 426 c 0,23,24
 683 535 683 535 604 602 c 0,25,26
 529 666 529 666 416 666 c 0,27,28
 290 666 290 666 209.5 579.5 c 128,-1,29
 129 493 129 493 129 366 c 0,30,31
 129 222 129 222 214 134 c 0,32,33
 296 48 296 48 425 48 c 0,34,35
 564 48 564 48 650 147 c 1,36,-1
 720 147 l 1,37,38
 672 70 672 70 592.5 26.5 c 128,-1,39
 513 -17 513 -17 421 -17 c 0,40,41
 264 -17 264 -17 158 91 c 0,42,43
 49 201 49 201 49 370 c 0,44,45
 49 520 49 520 157.5 625.5 c 128,-1,46
 266 731 266 731 416 731 c 0,47,48
 553 731 553 731 650 649 c 0,49,50
 751 564 751 564 751 438 c 0,51,52
 751 302 751 302 663 214 c 0,53,54
 590 140 590 140 515 140 c 0,55,56
 459 140 459 140 456 198 c 1,57,-1
 454 198 l 1,58,59
 403 141 403 141 342 141 c 0,60,61
 280 141 280 141 238 187 c 128,-1,62
 196 233 196 233 196 298 c 0,63,64
 196 398 196 398 256 475 c 0,65,66
 321 557 321 557 415 557 c 0,67,68
 492 557 492 557 527 485 c 1,69,-1
 545 542 l 1,70,-1
 615 542 l 1,14,-1
EndSplineSet
EndChar

StartChar: A
Encoding: 65 65 36
Width: 667
Flags: W
LayerCount: 2
Fore
SplineSet
331 591 m 1,0,-1
 223 284 l 1,1,-1
 441 284 l 1,2,-1
 334 591 l 1,3,-1
 331 591 l 1,0,-1
-7 0 m 1,4,-1
 267 714 l 1,5,-1
 400 714 l 1,6,-1
 675 0 l 1,7,-1
 541 0 l 1,8,-1
 474 189 l 1,9,-1
 189 189 l 1,10,-1
 122 0 l 1,11,-1
 -7 0 l 1,4,-1
EndSplineSet
EndChar

StartChar: B
Encoding: 66 66 37
Width: 704
Flags: W
LayerCount: 2
Fore
SplineSet
201 325 m 1,0,-1
 201 102 l 1,1,-1
 422 102 l 2,2,3
 542 102 542 102 542 215 c 0,4,5
 542 325 542 325 422 325 c 2,6,-1
 201 325 l 1,0,-1
76 0 m 1,7,-1
 76 714 l 1,8,-1
 423 714 l 2,9,10
 522 714 522 714 578.5 669 c 128,-1,11
 635 624 635 624 635 537 c 0,12,13
 635 429 635 429 533 385 c 1,14,-1
 533 383 l 1,15,16
 667 354 667 354 667 199 c 0,17,18
 667 110 667 110 605 58 c 0,19,20
 536 0 536 0 404 0 c 2,21,-1
 76 0 l 1,7,-1
201 612 m 1,22,-1
 201 415 l 1,23,-1
 405 415 l 2,24,25
 451 415 451 415 480.5 441 c 128,-1,26
 510 467 510 467 510 514 c 0,27,28
 510 612 510 612 405 612 c 2,29,-1
 201 612 l 1,22,-1
EndSplineSet
EndChar

StartChar: C
Encoding: 67 67 38
Width: 722
Flags: W
LayerCount: 2
Fore
SplineSet
683 487 m 1,0,-1
 558 487 l 1,1,2
 522 629 522 629 380 629 c 0,3,4
 273 629 273 629 214 544 c 0,5,6
 163 470 163 470 163 357 c 256,7,8
 163 244 163 244 214 170 c 0,9,10
 273 85 273 85 380 85 c 0,11,12
 460 85 460 85 509 140 c 0,13,14
 554 190 554 190 562 272 c 1,15,-1
 684 272 l 1,16,17
 676 143 676 143 592.5 63 c 128,-1,18
 509 -17 509 -17 380 -17 c 0,19,20
 224 -17 224 -17 129 94 c 0,21,22
 38 199 38 199 38 357 c 0,23,24
 38 516 38 516 129 621 c 0,25,26
 224 731 224 731 380 731 c 0,27,28
 503 731 503 731 586 667 c 0,29,30
 672 600 672 600 683 487 c 1,0,-1
EndSplineSet
EndChar

StartChar: D
Encoding: 68 68 39
Width: 722
Flags: W
LayerCount: 2
Fore
SplineSet
201 612 m 1,0,-1
 201 102 l 1,1,-1
 324 102 l 2,2,3
 460 102 460 102 517 176 c 0,4,5
 562 236 562 236 562 357 c 256,6,7
 562 478 562 478 517 538 c 0,8,9
 460 612 460 612 324 612 c 2,10,-1
 201 612 l 1,0,-1
76 0 m 1,11,-1
 76 714 l 1,12,-1
 372 714 l 2,13,14
 529 714 529 714 612 609 c 0,15,16
 687 515 687 515 687 357 c 256,17,18
 687 199 687 199 612 105 c 0,19,20
 529 0 529 0 372 0 c 2,21,-1
 76 0 l 1,11,-1
EndSplineSet
EndChar

StartChar: E
Encoding: 69 69 40
Width: 630
Flags: W
LayerCount: 2
Fore
SplineSet
76 0 m 1,0,-1
 76 714 l 1,1,-1
 590 714 l 1,2,-1
 590 606 l 1,3,-1
 201 606 l 1,4,-1
 201 419 l 1,5,-1
 561 419 l 1,6,-1
 561 317 l 1,7,-1
 201 317 l 1,8,-1
 201 108 l 1,9,-1
 597 108 l 1,10,-1
 597 0 l 1,11,-1
 76 0 l 1,0,-1
EndSplineSet
EndChar

StartChar: F
Encoding: 70 70 41
Width: 593
Flags: W
LayerCount: 2
Fore
SplineSet
76 0 m 1,0,-1
 76 714 l 1,1,-1
 569 714 l 1,2,-1
 569 606 l 1,3,-1
 201 606 l 1,4,-1
 201 419 l 1,5,-1
 524 419 l 1,6,-1
 524 317 l 1,7,-1
 201 317 l 1,8,-1
 201 0 l 1,9,-1
 76 0 l 1,0,-1
EndSplineSet
EndChar

StartChar: G
Encoding: 71 71 42
Width: 759
Flags: W
LayerCount: 2
Fore
SplineSet
699 376 m 1,0,-1
 699 0 l 1,1,-1
 619 0 l 1,2,-1
 600 84 l 1,3,4
 551 28 551 28 501.5 5.5 c 128,-1,5
 452 -17 452 -17 385 -17 c 0,6,7
 229 -17 229 -17 134 94 c 0,8,9
 43 199 43 199 43 357 c 256,10,11
 43 515 43 515 134 621 c 0,12,13
 229 731 229 731 385 731 c 0,14,15
 507 731 507 731 589 669 c 0,16,17
 677 604 677 604 691 487 c 1,18,-1
 569 487 l 1,19,20
 560 555 560 555 506 593 c 0,21,22
 456 629 456 629 385 629 c 0,23,24
 278 629 278 629 219 544 c 0,25,26
 168 470 168 470 168 357 c 256,27,28
 168 244 168 244 219 170 c 0,29,30
 277 86 277 86 385 85 c 0,31,32
 480 84 480 84 531.5 136.5 c 128,-1,33
 583 189 583 189 585 281 c 1,34,-1
 395 281 l 1,35,-1
 395 376 l 1,36,-1
 699 376 l 1,0,-1
EndSplineSet
EndChar

StartChar: H
Encoding: 72 72 43
Width: 722
Flags: W
LayerCount: 2
Fore
SplineSet
73 0 m 1,0,-1
 73 714 l 1,1,-1
 198 714 l 1,2,-1
 198 430 l 1,3,-1
 523 430 l 1,4,-1
 523 714 l 1,5,-1
 648 714 l 1,6,-1
 648 0 l 1,7,-1
 523 0 l 1,8,-1
 523 322 l 1,9,-1
 198 322 l 1,10,-1
 198 0 l 1,11,-1
 73 0 l 1,0,-1
EndSplineSet
EndChar

StartChar: I
Encoding: 73 73 44
Width: 278
Flags: W
LayerCount: 2
Fore
SplineSet
76 0 m 1,0,-1
 76 714 l 1,1,-1
 201 714 l 1,2,-1
 201 0 l 1,3,-1
 76 0 l 1,0,-1
EndSplineSet
EndChar

StartChar: J
Encoding: 74 74 45
Width: 537
Flags: W
LayerCount: 2
Fore
SplineSet
461 714 m 1,0,-1
 461 230 l 2,1,2
 461 117 461 117 420 60 c 0,3,4
 365 -17 365 -17 226 -17 c 0,5,6
 118 -17 118 -17 63 49 c 0,7,8
 13 108 13 108 13 212 c 2,9,-1
 13 250 l 1,10,-1
 138 250 l 1,11,-1
 138 213 l 2,12,13
 138 149 138 149 159 119 c 0,14,15
 182 85 182 85 236 85 c 0,16,17
 294 85 294 85 316 121 c 0,18,19
 336 151 336 151 336 223 c 2,20,-1
 336 714 l 1,21,-1
 461 714 l 1,0,-1
EndSplineSet
EndChar

StartChar: K
Encoding: 75 75 46
Width: 685
Flags: W
LayerCount: 2
Fore
SplineSet
76 0 m 1,0,-1
 76 714 l 1,1,-1
 201 714 l 1,2,-1
 201 389 l 1,3,-1
 519 714 l 1,4,-1
 673 714 l 1,5,-1
 388 429 l 1,6,-1
 693 0 l 1,7,-1
 537 0 l 1,8,-1
 303 341 l 1,9,-1
 201 240 l 1,10,-1
 201 0 l 1,11,-1
 76 0 l 1,0,-1
EndSplineSet
EndChar

StartChar: L
Encoding: 76 76 47
Width: 574
Flags: W
LayerCount: 2
Fore
SplineSet
76 0 m 1,0,-1
 76 714 l 1,1,-1
 201 714 l 1,2,-1
 201 108 l 1,3,-1
 564 108 l 1,4,-1
 564 0 l 1,5,-1
 76 0 l 1,0,-1
EndSplineSet
EndChar

StartChar: M
Encoding: 77 77 48
Width: 889
Flags: W
LayerCount: 2
Fore
SplineSet
74 0 m 1,0,-1
 74 714 l 1,1,-1
 250 714 l 1,2,-1
 447 155 l 1,3,-1
 449 155 l 1,4,-1
 641 714 l 1,5,-1
 815 714 l 1,6,-1
 815 0 l 1,7,-1
 696 0 l 1,8,-1
 696 551 l 1,9,-1
 694 551 l 1,10,-1
 496 0 l 1,11,-1
 393 0 l 1,12,-1
 195 551 l 1,13,-1
 193 551 l 1,14,-1
 193 0 l 1,15,-1
 74 0 l 1,0,-1
EndSplineSet
EndChar

StartChar: N
Encoding: 78 78 49
Width: 722
Flags: W
LayerCount: 2
Fore
SplineSet
71 0 m 1,0,-1
 71 714 l 1,1,-1
 203 714 l 1,2,-1
 529 188 l 1,3,-1
 531 188 l 1,4,-1
 531 714 l 1,5,-1
 650 714 l 1,6,-1
 650 0 l 1,7,-1
 518 0 l 1,8,-1
 193 525 l 1,9,-1
 190 525 l 1,10,-1
 190 0 l 1,11,-1
 71 0 l 1,0,-1
EndSplineSet
EndChar

StartChar: O
Encoding: 79 79 50
Width: 760
Flags: W
LayerCount: 2
Fore
SplineSet
380 731 m 256,0,1
 536 731 536 731 631 621 c 0,2,3
 722 515 722 515 722 357 c 256,4,5
 722 199 722 199 631 94 c 0,6,7
 536 -17 536 -17 380 -17 c 256,8,9
 224 -17 224 -17 129 94 c 0,10,11
 38 199 38 199 38 357 c 256,12,13
 38 515 38 515 129 621 c 0,14,15
 224 731 224 731 380 731 c 256,0,1
380 629 m 256,16,17
 273 629 273 629 214 544 c 0,18,19
 163 470 163 470 163 357 c 256,20,21
 163 244 163 244 214 170 c 0,22,23
 273 85 273 85 380 85 c 256,24,25
 487 85 487 85 546 170 c 0,26,27
 597 244 597 244 597 357 c 256,28,29
 597 470 597 470 546 544 c 0,30,31
 487 629 487 629 380 629 c 256,16,17
EndSplineSet
EndChar

StartChar: P
Encoding: 80 80 51
Width: 667
Flags: W
LayerCount: 2
Fore
SplineSet
201 612 m 1,0,-1
 201 376 l 1,1,-1
 384 376 l 2,2,3
 434 376 434 376 468 401 c 0,4,5
 509 432 509 432 509 494 c 0,6,7
 509 612 509 612 386 612 c 2,8,-1
 201 612 l 1,0,-1
76 0 m 1,9,-1
 76 714 l 1,10,-1
 391 714 l 2,11,12
 527 714 527 714 589 637 c 0,13,14
 634 581 634 581 634 493 c 0,15,16
 634 406 634 406 589 351 c 0,17,18
 527 274 527 274 391 274 c 2,19,-1
 201 274 l 1,20,-1
 201 0 l 1,21,-1
 76 0 l 1,9,-1
EndSplineSet
EndChar

StartChar: Q
Encoding: 81 81 52
Width: 760
Flags: W
LayerCount: 2
Fore
SplineSet
460 102 m 1,0,-1
 388 165 l 1,1,-1
 448 234 l 1,2,-1
 535 158 l 1,3,4
 597 232 597 232 597 357 c 0,5,6
 597 470 597 470 546 544 c 0,7,8
 487 629 487 629 380 629 c 256,9,10
 273 629 273 629 214 544 c 0,11,12
 163 470 163 470 163 357 c 256,13,14
 163 244 163 244 214 170 c 0,15,16
 273 85 273 85 380 85 c 0,17,18
 425 85 425 85 460 102 c 1,0,-1
621 83 m 1,19,-1
 713 3 l 1,20,-1
 652 -65 l 1,21,-1
 548 26 l 1,22,23
 472 -17 472 -17 380 -17 c 0,24,25
 224 -17 224 -17 129 94 c 0,26,27
 38 199 38 199 38 357 c 256,28,29
 38 515 38 515 129 621 c 0,30,31
 224 731 224 731 380 731 c 256,32,33
 536 731 536 731 631 621 c 0,34,35
 722 515 722 515 722 357 c 0,36,37
 722 180 722 180 621 83 c 1,19,-1
EndSplineSet
EndChar

StartChar: R
Encoding: 82 82 53
Width: 704
Flags: W
LayerCount: 2
Fore
SplineSet
201 612 m 1,0,-1
 201 389 l 1,1,-1
 406 389 l 2,2,3
 528 389 528 389 528 503 c 0,4,5
 528 612 528 612 404 612 c 2,6,-1
 201 612 l 1,0,-1
76 0 m 1,7,-1
 76 714 l 1,8,-1
 417 714 l 2,9,10
 533 714 533 714 593 663.5 c 128,-1,11
 653 613 653 613 653 521 c 0,12,13
 653 382 653 382 535 341 c 1,14,-1
 535 339 l 1,15,16
 641 324 641 324 641 188 c 0,17,18
 641 42 641 42 680 0 c 1,19,-1
 546 0 l 1,20,21
 527 31 527 31 527 105 c 0,22,23
 527 208 527 208 499 249 c 0,24,25
 468 294 468 294 385 294 c 2,26,-1
 201 294 l 1,27,-1
 201 0 l 1,28,-1
 76 0 l 1,7,-1
EndSplineSet
EndChar

StartChar: S
Encoding: 83 83 54
Width: 648
Flags: W
LayerCount: 2
Fore
SplineSet
33 238 m 1,0,-1
 158 238 l 1,1,2
 158 160 158 160 211 120 c 0,3,4
 258 85 258 85 339 85 c 0,5,6
 416 85 416 85 456 119 c 0,7,8
 490 148 490 148 490 193 c 0,9,10
 490 259 490 259 431 281 c 0,11,12
 423 284 423 284 218 340 c 0,13,14
 60 383 60 383 60 521 c 0,15,16
 60 622 60 622 142 680 c 0,17,18
 215 731 215 731 321 731 c 0,19,20
 438 731 438 731 514 673 c 0,21,22
 595 610 595 610 595 503 c 1,23,-1
 470 503 l 1,24,25
 462 629 462 629 316 629 c 0,26,27
 264 629 264 629 229 610 c 0,28,29
 185 585 185 585 185 536 c 0,30,31
 185 467 185 467 270 444.5 c 128,-1,32
 355 422 355 422 476 389 c 0,33,34
 543 369 543 369 581 315 c 0,35,36
 615 266 615 266 615 207 c 0,37,38
 615 95 615 95 526 35 c 0,39,40
 449 -17 449 -17 331 -17 c 0,41,42
 201 -17 201 -17 122 44 c 0,43,44
 35 111 35 111 33 238 c 1,0,-1
EndSplineSet
EndChar

StartChar: T
Encoding: 84 84 55
Width: 593
Flags: W
LayerCount: 2
Fore
SplineSet
8 606 m 1,0,-1
 8 714 l 1,1,-1
 586 714 l 1,2,-1
 586 606 l 1,3,-1
 359 606 l 1,4,-1
 359 0 l 1,5,-1
 234 0 l 1,6,-1
 234 606 l 1,7,-1
 8 606 l 1,0,-1
EndSplineSet
EndChar

StartChar: U
Encoding: 85 85 56
Width: 722
Flags: W
LayerCount: 2
Fore
SplineSet
68 257 m 2,0,-1
 68 714 l 1,1,-1
 193 714 l 1,2,-1
 193 298 l 2,3,4
 193 201 193 201 216 159 c 0,5,6
 253 91 253 91 361 91 c 256,7,8
 469 91 469 91 506 159 c 0,9,10
 529 201 529 201 529 298 c 2,11,-1
 529 714 l 1,12,-1
 654 714 l 1,13,-1
 654 257 l 2,14,15
 654 123 654 123 574 51 c 0,16,17
 497 -17 497 -17 361 -17 c 256,18,19
 225 -17 225 -17 149 51 c 0,20,21
 68 123 68 123 68 257 c 2,0,-1
EndSplineSet
EndChar

StartChar: V
Encoding: 86 86 57
Width: 611
Flags: W
LayerCount: 2
Fore
SplineSet
233 0 m 1,0,-1
 -5 714 l 1,1,-1
 125 714 l 1,2,-1
 304 149 l 1,3,-1
 306 149 l 1,4,-1
 489 714 l 1,5,-1
 616 714 l 1,6,-1
 372 0 l 1,7,-1
 233 0 l 1,0,-1
EndSplineSet
EndChar

StartChar: W
Encoding: 87 87 58
Width: 944
Flags: W
LayerCount: 2
Fore
SplineSet
194 0 m 1,0,-1
 6 714 l 1,1,-1
 133 714 l 1,2,-1
 262 168 l 1,3,-1
 264 168 l 1,4,-1
 408 714 l 1,5,-1
 536 714 l 1,6,-1
 676 168 l 1,7,-1
 678 168 l 1,8,-1
 811 714 l 1,9,-1
 938 714 l 1,10,-1
 741 0 l 1,11,-1
 614 0 l 1,12,-1
 471 546 l 1,13,-1
 469 546 l 1,14,-1
 323 0 l 1,15,-1
 194 0 l 1,0,-1
EndSplineSet
EndChar

StartChar: X
Encoding: 88 88 59
Width: 648
Flags: W
LayerCount: 2
Fore
SplineSet
250 370 m 1,0,-1
 14 714 l 1,1,-1
 163 714 l 1,2,-1
 325 462 l 1,3,-1
 494 714 l 1,4,-1
 634 714 l 1,5,-1
 398 370 l 1,6,-1
 651 0 l 1,7,-1
 499 0 l 1,8,-1
 321 273 l 1,9,-1
 140 0 l 1,10,-1
 -3 0 l 1,11,-1
 250 370 l 1,0,-1
EndSplineSet
EndChar

StartChar: Y
Encoding: 89 89 60
Width: 648
Flags: W
LayerCount: 2
Fore
SplineSet
262 0 m 1,0,-1
 262 280 l 1,1,-1
 -6 714 l 1,2,-1
 139 714 l 1,3,-1
 328 394 l 1,4,-1
 514 714 l 1,5,-1
 654 714 l 1,6,-1
 387 280 l 1,7,-1
 387 0 l 1,8,-1
 262 0 l 1,0,-1
EndSplineSet
EndChar

StartChar: Z
Encoding: 90 90 61
Width: 630
Flags: W
LayerCount: 2
Fore
SplineSet
55 606 m 1,0,-1
 55 714 l 1,1,-1
 598 714 l 1,2,-1
 598 619 l 1,3,-1
 182 108 l 1,4,-1
 608 108 l 1,5,-1
 608 0 l 1,6,-1
 23 0 l 1,7,-1
 23 102 l 1,8,-1
 439 606 l 1,9,-1
 55 606 l 1,0,-1
EndSplineSet
EndChar

StartChar: bracketleft
Encoding: 91 91 62
Width: 296
Flags: W
LayerCount: 2
Fore
SplineSet
72 -191 m 1,0,-1
 72 731 l 1,1,-1
 295 731 l 1,2,-1
 295 641 l 1,3,-1
 180 641 l 1,4,-1
 180 -101 l 1,5,-1
 295 -101 l 1,6,-1
 295 -191 l 1,7,-1
 72 -191 l 1,0,-1
EndSplineSet
EndChar

StartChar: backslash
Encoding: 92 92 63
Width: 352
Flags: W
LayerCount: 2
Fore
SplineSet
87 731 m 1,0,-1
 374 -17 l 1,1,-1
 265 -17 l 1,2,-1
 -22 731 l 1,3,-1
 87 731 l 1,0,-1
EndSplineSet
EndChar

StartChar: bracketright
Encoding: 93 93 64
Width: 296
Flags: W
LayerCount: 2
Fore
SplineSet
224 731 m 1,0,-1
 224 -191 l 1,1,-1
 1 -191 l 1,2,-1
 1 -101 l 1,3,-1
 116 -101 l 1,4,-1
 116 641 l 1,5,-1
 1 641 l 1,6,-1
 1 731 l 1,7,-1
 224 731 l 1,0,-1
EndSplineSet
EndChar

StartChar: asciicircum
Encoding: 94 94 65
Width: 600
Flags: W
LayerCount: 2
Fore
SplineSet
186 335 m 1,0,-1
 84 335 l 1,1,-1
 264 700 l 1,2,-1
 336 700 l 1,3,-1
 516 335 l 1,4,-1
 414 335 l 1,5,-1
 300 582 l 1,6,-1
 186 335 l 1,0,-1
EndSplineSet
EndChar

StartChar: underscore
Encoding: 95 95 66
Width: 500
Flags: W
LayerCount: 2
Fore
SplineSet
500 -125 m 1,0,-1
 0 -125 l 1,1,-1
 0 -75 l 1,2,-1
 500 -75 l 1,3,-1
 500 -125 l 1,0,-1
EndSplineSet
EndChar

StartChar: grave
Encoding: 96 96 67
Width: 241
Flags: W
LayerCount: 2
Fore
SplineSet
-29 731 m 1,0,-1
 105 731 l 1,1,-1
 196 588 l 1,2,-1
 113 588 l 1,3,-1
 -29 731 l 1,0,-1
EndSplineSet
EndChar

StartChar: a
Encoding: 97 97 68
Width: 556
Flags: W
LayerCount: 2
Fore
SplineSet
379 174 m 2,0,-1
 379 259 l 1,1,2
 357 245 357 245 315 238 c 0,3,4
 277 233 277 233 239 228 c 0,5,6
 146 212 146 212 146 142 c 0,7,8
 146 108 146 108 184 90 c 0,9,10
 213 76 213 76 251 76 c 0,11,12
 297 76 297 76 334 98 c 0,13,14
 379 125 379 125 379 174 c 2,0,-1
493 381 m 2,15,-1
 493 115 l 2,16,17
 493 76 493 76 520 76 c 0,18,19
 536 76 536 76 548 78 c 1,20,-1
 548 -1 l 1,21,22
 511 -14 511 -14 476 -14 c 0,23,24
 400 -14 400 -14 388 49 c 1,25,26
 324 -14 324 -14 209 -14 c 0,27,28
 134 -14 134 -14 86 24 c 0,29,30
 32 65 32 65 32 137 c 0,31,32
 32 223 32 223 96 261 c 0,33,34
 135 284 135 284 231 298 c 0,35,36
 339 314 339 314 339 314 c 1,37,38
 386 328 386 328 386 371 c 0,39,40
 386 441 386 441 279 441 c 256,41,42
 172 441 172 441 165 359 c 1,43,-1
 51 359 l 1,44,45
 61 531 61 531 286 531 c 0,46,47
 371 531 371 531 427 497 c 0,48,49
 493 457 493 457 493 381 c 2,15,-1
EndSplineSet
EndChar

StartChar: b
Encoding: 98 98 69
Width: 611
Flags: W
LayerCount: 2
Fore
SplineSet
461 258 m 0,0,1
 461 333 461 333 425 385 c 0,2,3
 385 441 385 441 318 441 c 0,4,5
 248 441 248 441 210.5 392 c 128,-1,6
 173 343 173 343 173 258 c 0,7,8
 173 178 173 178 212 127 c 128,-1,9
 251 76 251 76 318 76 c 0,10,11
 390 76 390 76 429 133 c 0,12,13
 461 182 461 182 461 258 c 0,0,1
63 0 m 1,14,-1
 63 714 l 1,15,-1
 177 714 l 1,16,-1
 177 450 l 1,17,-1
 179 450 l 1,18,19
 202 487 202 487 245 509 c 128,-1,20
 288 531 288 531 333 531 c 0,21,22
 450 531 450 531 515 450 c 0,23,24
 575 376 575 376 575 256 c 0,25,26
 575 143 575 143 521 69 c 0,27,28
 460 -14 460 -14 352 -14 c 0,29,30
 216 -14 216 -14 173 71 c 1,31,-1
 171 71 l 1,32,-1
 171 0 l 1,33,-1
 63 0 l 1,14,-1
EndSplineSet
EndChar

StartChar: c
Encoding: 99 99 70
Width: 556
Flags: W
LayerCount: 2
Fore
SplineSet
523 344 m 1,0,-1
 409 344 l 1,1,2
 395 441 395 441 291 441 c 0,3,4
 234 441 234 441 198 406 c 0,5,6
 149 358 149 358 149 253 c 0,7,8
 149 180 149 180 180 132 c 0,9,10
 217 76 217 76 286 76 c 0,11,12
 336 76 336 76 368.5 107.5 c 128,-1,13
 401 139 401 139 409 194 c 1,14,-1
 523 194 l 1,15,16
 490 -14 490 -14 286 -14 c 0,17,18
 168 -14 168 -14 100 63 c 0,19,20
 35 135 35 135 35 253 c 0,21,22
 35 376 35 376 99 451 c 0,23,24
 167 531 167 531 290 531 c 0,25,26
 385 531 385 531 447 485 c 0,27,28
 515 435 515 435 523 344 c 1,0,-1
EndSplineSet
EndChar

StartChar: d
Encoding: 100 100 71
Width: 611
Flags: W
LayerCount: 2
Fore
SplineSet
149 253 m 0,0,1
 149 180 149 180 183 131 c 0,2,3
 222 76 222 76 292 76 c 0,4,5
 363 76 363 76 403 134 c 0,6,7
 437 184 437 184 437 259 c 0,8,9
 437 344 437 344 398.5 392.5 c 128,-1,10
 360 441 360 441 294 441 c 0,11,12
 220 441 220 441 181 382 c 0,13,14
 149 332 149 332 149 253 c 0,0,1
547 714 m 1,15,-1
 547 0 l 1,16,-1
 439 0 l 1,17,-1
 439 70 l 1,18,-1
 437 70 l 1,19,20
 394 -14 394 -14 277 -14 c 0,21,22
 159 -14 159 -14 95 66 c 0,23,24
 35 140 35 140 35 262 c 0,25,26
 35 394 35 394 105 467 c 0,27,28
 166 531 166 531 259 531 c 0,29,30
 381 531 381 531 431 450 c 1,31,-1
 433 450 l 1,32,-1
 433 714 l 1,33,-1
 547 714 l 1,15,-1
EndSplineSet
EndChar

StartChar: e
Encoding: 101 101 72
Width: 556
Flags: W
LayerCount: 2
Fore
SplineSet
529 229 m 1,0,-1
 149 229 l 1,1,2
 149 164 149 164 183 122 c 0,3,4
 220 76 220 76 288 76 c 0,5,6
 384 76 384 76 414 162 c 1,7,-1
 522 162 l 1,8,9
 504 79 504 79 439.5 32.5 c 128,-1,10
 375 -14 375 -14 288 -14 c 0,11,12
 169 -14 169 -14 102 61 c 128,-1,13
 35 136 35 136 35 258 c 0,14,15
 35 372 35 372 102 450 c 0,16,17
 173 531 173 531 285 531 c 0,18,19
 394 531 394 531 464 451 c 0,20,21
 531 376 531 376 531 267 c 0,22,23
 531 248 531 248 529 229 c 1,0,-1
149 304 m 1,24,-1
 415 304 l 1,25,26
 412 361 412 361 376.5 401 c 128,-1,27
 341 441 341 441 285 441 c 0,28,29
 227 441 227 441 189 402 c 128,-1,30
 151 363 151 363 149 304 c 1,24,-1
EndSplineSet
EndChar

StartChar: f
Encoding: 102 102 73
Width: 315
Flags: W
LayerCount: 2
Fore
SplineSet
9 432 m 1,0,-1
 9 517 l 1,1,-1
 94 517 l 1,2,-1
 94 560 l 2,3,4
 94 650 94 650 138 687 c 0,5,6
 171 714 171 714 237 714 c 0,7,8
 292 714 292 714 317 707 c 1,9,-1
 317 618 l 1,10,11
 295 624 295 624 264 624 c 0,12,13
 208 624 208 624 208 570 c 2,14,-1
 208 517 l 1,15,-1
 305 517 l 1,16,-1
 305 432 l 1,17,-1
 208 432 l 1,18,-1
 208 0 l 1,19,-1
 94 0 l 1,20,-1
 94 432 l 1,21,-1
 9 432 l 1,0,-1
EndSplineSet
EndChar

StartChar: g
Encoding: 103 103 74
Width: 593
Flags: W
LayerCount: 2
Fore
SplineSet
285 90 m 0,0,1
 355 90 355 90 392 147 c 0,2,3
 424 196 424 196 424 270 c 0,4,5
 424 343 424 343 392 389 c 0,6,7
 355 441 355 441 285 441 c 256,8,9
 215 441 215 441 179 383 c 0,10,11
 149 335 149 335 149 261 c 0,12,13
 149 191 149 191 181 144 c 0,14,15
 218 90 218 90 285 90 c 0,0,1
538 517 m 1,16,-1
 538 27 l 2,17,18
 538 -205 538 -205 284 -205 c 0,19,20
 194 -205 194 -205 133 -170 c 0,21,22
 60 -128 60 -128 53 -44 c 1,23,-1
 167 -44 l 1,24,25
 183 -120 183 -120 291 -120 c 0,26,27
 424 -120 424 -120 424 12 c 2,28,-1
 424 91 l 1,29,-1
 422 91 l 1,30,31
 371 0 371 0 267 0 c 0,32,33
 150 0 150 0 90 81 c 0,34,35
 35 152 35 152 35 272 c 0,36,37
 35 381 35 381 97 454 c 0,38,39
 162 531 162 531 269 531 c 0,40,41
 380 531 380 531 422 446 c 1,42,-1
 424 446 l 1,43,-1
 424 517 l 1,44,-1
 538 517 l 1,16,-1
EndSplineSet
EndChar

StartChar: h
Encoding: 104 104 75
Width: 574
Flags: W
LayerCount: 2
Fore
SplineSet
60 0 m 1,0,-1
 60 714 l 1,1,-1
 174 714 l 1,2,-1
 174 449 l 1,3,-1
 176 449 l 1,4,5
 198 485 198 485 239.5 508 c 128,-1,6
 281 531 281 531 331 531 c 0,7,8
 417 531 417 531 465.5 486 c 128,-1,9
 514 441 514 441 514 355 c 2,10,-1
 514 0 l 1,11,-1
 400 0 l 1,12,-1
 400 325 l 2,13,14
 400 441 400 441 299 441 c 0,15,16
 243 441 243 441 208.5 402 c 128,-1,17
 174 363 174 363 174 305 c 2,18,-1
 174 0 l 1,19,-1
 60 0 l 1,0,-1
EndSplineSet
EndChar

StartChar: i
Encoding: 105 105 76
Width: 241
Flags: W
LayerCount: 2
Fore
SplineSet
63 0 m 1,0,-1
 63 517 l 1,1,-1
 177 517 l 1,2,-1
 177 0 l 1,3,-1
 63 0 l 1,0,-1
63 606 m 1,4,-1
 63 714 l 1,5,-1
 177 714 l 1,6,-1
 177 606 l 1,7,-1
 63 606 l 1,4,-1
EndSplineSet
EndChar

StartChar: j
Encoding: 106 106 77
Width: 241
Flags: W
LayerCount: 2
Fore
SplineSet
63 -39 m 2,0,-1
 63 517 l 1,1,-1
 177 517 l 1,2,-1
 177 -44 l 2,3,4
 177 -205 177 -205 29 -205 c 0,5,6
 8 -205 8 -205 -22 -201 c 1,7,-1
 -22 -111 l 1,8,9
 8 -115 8 -115 17 -115 c 0,10,11
 46 -115 46 -115 56 -96 c 0,12,13
 63 -81 63 -81 63 -39 c 2,0,-1
63 606 m 1,14,-1
 63 714 l 1,15,-1
 177 714 l 1,16,-1
 177 606 l 1,17,-1
 63 606 l 1,14,-1
EndSplineSet
EndChar

StartChar: k
Encoding: 107 107 78
Width: 537
Flags: W
LayerCount: 2
Fore
SplineSet
63 0 m 1,0,-1
 63 714 l 1,1,-1
 177 714 l 1,2,-1
 177 308 l 1,3,-1
 383 517 l 1,4,-1
 523 517 l 1,5,-1
 325 327 l 1,6,-1
 542 0 l 1,7,-1
 403 0 l 1,8,-1
 245 251 l 1,9,-1
 177 185 l 1,10,-1
 177 0 l 1,11,-1
 63 0 l 1,0,-1
EndSplineSet
EndChar

StartChar: l
Encoding: 108 108 79
Width: 241
Flags: W
LayerCount: 2
Fore
SplineSet
63 0 m 1,0,-1
 63 714 l 1,1,-1
 177 714 l 1,2,-1
 177 0 l 1,3,-1
 63 0 l 1,0,-1
EndSplineSet
EndChar

StartChar: m
Encoding: 109 109 80
Width: 870
Flags: W
LayerCount: 2
Fore
SplineSet
60 0 m 1,0,-1
 60 517 l 1,1,-1
 168 517 l 1,2,-1
 168 445 l 1,3,-1
 171 445 l 1,4,5
 228 531 228 531 330 531 c 0,6,7
 441 531 441 531 475 445 c 1,8,9
 537 531 537 531 637 531 c 0,10,11
 810 531 810 531 810 357 c 2,12,-1
 810 0 l 1,13,-1
 696 0 l 1,14,-1
 696 302 l 2,15,16
 696 375 696 375 682 402 c 0,17,18
 663 441 663 441 602 441 c 0,19,20
 492 441 492 441 492 303 c 2,21,-1
 492 0 l 1,22,-1
 378 0 l 1,23,-1
 378 332 l 2,24,25
 378 388 378 388 357.5 414.5 c 128,-1,26
 337 441 337 441 287 441 c 0,27,28
 240 441 240 441 207 405 c 128,-1,29
 174 369 174 369 174 307 c 2,30,-1
 174 0 l 1,31,-1
 60 0 l 1,0,-1
EndSplineSet
EndChar

StartChar: n
Encoding: 110 110 81
Width: 574
Flags: W
LayerCount: 2
Fore
SplineSet
60 0 m 1,0,-1
 60 517 l 1,1,-1
 168 517 l 1,2,-1
 168 441 l 1,3,-1
 170 439 l 1,4,5
 225 531 225 531 331 531 c 0,6,7
 417 531 417 531 465.5 486 c 128,-1,8
 514 441 514 441 514 355 c 2,9,-1
 514 0 l 1,10,-1
 400 0 l 1,11,-1
 400 325 l 2,12,13
 400 441 400 441 299 441 c 0,14,15
 243 441 243 441 208.5 402 c 128,-1,16
 174 363 174 363 174 305 c 2,17,-1
 174 0 l 1,18,-1
 60 0 l 1,0,-1
EndSplineSet
EndChar

StartChar: o
Encoding: 111 111 82
Width: 593
Flags: W
LayerCount: 2
Fore
SplineSet
297 76 m 256,0,1
 369 76 369 76 409 134 c 0,2,3
 444 184 444 184 444 259 c 0,4,5
 444 333 444 333 409 383 c 0,6,7
 369 441 369 441 297 441 c 256,8,9
 225 441 225 441 185 383 c 0,10,11
 150 333 150 333 150 259 c 0,12,13
 150 184 150 184 185 134 c 0,14,15
 225 76 225 76 297 76 c 256,0,1
297 -14 m 256,16,17
 175 -14 175 -14 104 63 c 0,18,19
 36 137 36 137 36 259 c 0,20,21
 36 380 36 380 105.5 455.5 c 128,-1,22
 175 531 175 531 297 531 c 256,23,24
 419 531 419 531 490 454 c 0,25,26
 558 380 558 380 558 259 c 0,27,28
 558 137 558 137 490 63 c 0,29,30
 419 -14 419 -14 297 -14 c 256,16,17
EndSplineSet
EndChar

StartChar: p
Encoding: 112 112 83
Width: 611
Flags: W
LayerCount: 2
Fore
SplineSet
461 258 m 0,0,1
 461 333 461 333 425 385 c 0,2,3
 385 441 385 441 318 441 c 0,4,5
 248 441 248 441 210.5 392 c 128,-1,6
 173 343 173 343 173 258 c 0,7,8
 173 178 173 178 212 127 c 128,-1,9
 251 76 251 76 318 76 c 0,10,11
 390 76 390 76 429 133 c 0,12,13
 461 182 461 182 461 258 c 0,0,1
63 -191 m 1,14,-1
 63 517 l 1,15,-1
 171 517 l 1,16,-1
 171 447 l 1,17,-1
 173 447 l 1,18,19
 219 531 219 531 333 531 c 0,20,21
 450 531 450 531 515 450 c 0,22,23
 575 376 575 376 575 256 c 0,24,25
 575 143 575 143 521 69 c 0,26,27
 460 -14 460 -14 352 -14 c 0,28,29
 230 -14 230 -14 179 67 c 1,30,-1
 177 67 l 1,31,-1
 177 -191 l 1,32,-1
 63 -191 l 1,14,-1
EndSplineSet
EndChar

StartChar: q
Encoding: 113 113 84
Width: 611
Flags: W
LayerCount: 2
Fore
SplineSet
149 258 m 0,0,1
 149 182 149 182 182 133 c 0,2,3
 220 76 220 76 292 76 c 256,4,5
 364 76 364 76 402 127 c 0,6,7
 437 174 437 174 437 258 c 0,8,9
 437 343 437 343 399.5 392 c 128,-1,10
 362 441 362 441 292 441 c 0,11,12
 225 441 225 441 185 385 c 0,13,14
 149 333 149 333 149 258 c 0,0,1
547 517 m 1,15,-1
 547 -191 l 1,16,-1
 433 -191 l 1,17,-1
 433 67 l 1,18,-1
 431 67 l 1,19,20
 380 -14 380 -14 258 -14 c 0,21,22
 150 -14 150 -14 89 69 c 0,23,24
 35 143 35 143 35 256 c 0,25,26
 35 376 35 376 95 450 c 0,27,28
 160 531 160 531 277 531 c 0,29,30
 391 531 391 531 437 447 c 1,31,-1
 439 447 l 1,32,-1
 439 517 l 1,33,-1
 547 517 l 1,15,-1
EndSplineSet
EndChar

StartChar: r
Encoding: 114 114 85
Width: 352
Flags: W
LayerCount: 2
Fore
SplineSet
60 0 m 1,0,-1
 60 517 l 1,1,-1
 167 517 l 1,2,-1
 167 417 l 1,3,-1
 169 417 l 1,4,5
 179 460 179 460 224 495.5 c 128,-1,6
 269 531 269 531 320 531 c 0,7,8
 333 531 333 531 363 528 c 1,9,-1
 363 418 l 1,10,11
 323 423 323 423 314 423 c 0,12,13
 253 423 253 423 215 377 c 0,14,15
 174 329 174 329 174 246 c 2,16,-1
 174 0 l 1,17,-1
 60 0 l 1,0,-1
EndSplineSet
EndChar

StartChar: s
Encoding: 115 115 86
Width: 519
Flags: W
LayerCount: 2
Fore
SplineSet
32 166 m 1,0,-1
 146 166 l 1,1,2
 154 76 154 76 263 76 c 0,3,4
 381 76 381 76 378 144 c 0,5,6
 376 192 376 192 288 213 c 0,7,8
 141 249 141 249 129 255 c 0,9,10
 43 293 43 293 43 383 c 0,11,12
 43 460 43 460 116 499 c 0,13,14
 174 531 174 531 259 531 c 0,15,16
 346 531 346 531 402 495 c 0,17,18
 465 453 465 453 475 372 c 1,19,-1
 356 372 l 1,20,21
 343 441 343 441 251 441 c 0,22,23
 157 441 157 441 157 388 c 0,24,25
 157 352 157 352 210 333 c 0,26,27
 220 329 220 329 325 305 c 0,28,29
 403 287 403 287 440 261 c 0,30,31
 492 223 492 223 492 154 c 0,32,33
 492 69 492 69 417 24 c 0,34,35
 354 -14 354 -14 261 -14 c 0,36,37
 159 -14 159 -14 99 30 c 0,38,39
 33 78 33 78 32 166 c 1,0,-1
EndSplineSet
EndChar

StartChar: t
Encoding: 116 116 87
Width: 333
Flags: W
LayerCount: 2
Fore
SplineSet
8 432 m 1,0,-1
 8 517 l 1,1,-1
 94 517 l 1,2,-1
 94 672 l 1,3,-1
 208 672 l 1,4,-1
 208 517 l 1,5,-1
 311 517 l 1,6,-1
 311 432 l 1,7,-1
 208 432 l 1,8,-1
 208 156 l 2,9,10
 208 116 208 116 216 103 c 0,11,12
 227 85 227 85 263 85 c 0,13,14
 295 85 295 85 311 89 c 1,15,-1
 311 1 l 1,16,17
 236 -5 236 -5 237 -5 c 1,18,19
 153 -5 153 -5 121 29 c 0,20,21
 94 57 94 57 94 127 c 2,22,-1
 94 432 l 1,23,-1
 8 432 l 1,0,-1
EndSplineSet
EndChar

StartChar: u
Encoding: 117 117 88
Width: 574
Flags: W
LayerCount: 2
Fore
SplineSet
514 517 m 1,0,-1
 514 0 l 1,1,-1
 402 0 l 1,2,-1
 402 72 l 1,3,-1
 400 72 l 1,4,5
 379 34 379 34 337.5 10 c 128,-1,6
 296 -14 296 -14 253 -14 c 0,7,8
 60 -14 60 -14 60 189 c 2,9,-1
 60 517 l 1,10,-1
 174 517 l 1,11,-1
 174 200 l 2,12,13
 174 76 174 76 273 76 c 0,14,15
 400 76 400 76 400 217 c 2,16,-1
 400 517 l 1,17,-1
 514 517 l 1,0,-1
EndSplineSet
EndChar

StartChar: v
Encoding: 118 118 89
Width: 519
Flags: W
LayerCount: 2
Fore
SplineSet
197 0 m 1,0,-1
 9 517 l 1,1,-1
 133 517 l 1,2,-1
 264 120 l 1,3,-1
 266 120 l 1,4,-1
 392 517 l 1,5,-1
 510 517 l 1,6,-1
 325 0 l 1,7,-1
 197 0 l 1,0,-1
EndSplineSet
EndChar

StartChar: w
Encoding: 119 119 90
Width: 778
Flags: W
LayerCount: 2
Fore
SplineSet
173 0 m 1,0,-1
 13 517 l 1,1,-1
 134 517 l 1,2,-1
 235 131 l 1,3,-1
 237 131 l 1,4,-1
 334 517 l 1,5,-1
 449 517 l 1,6,-1
 542 131 l 1,7,-1
 544 131 l 1,8,-1
 649 517 l 1,9,-1
 765 517 l 1,10,-1
 603 0 l 1,11,-1
 486 0 l 1,12,-1
 390 384 l 1,13,-1
 388 384 l 1,14,-1
 293 0 l 1,15,-1
 173 0 l 1,0,-1
EndSplineSet
EndChar

StartChar: x
Encoding: 120 120 91
Width: 537
Flags: W
LayerCount: 2
Fore
SplineSet
4 0 m 1,0,-1
 199 272 l 1,1,-1
 20 517 l 1,2,-1
 158 517 l 1,3,-1
 266 358 l 1,4,-1
 379 517 l 1,5,-1
 511 517 l 1,6,-1
 335 278 l 1,7,-1
 533 0 l 1,8,-1
 396 0 l 1,9,-1
 265 191 l 1,10,-1
 138 0 l 1,11,-1
 4 0 l 1,0,-1
EndSplineSet
EndChar

StartChar: y
Encoding: 121 121 92
Width: 519
Flags: W
LayerCount: 2
Fore
SplineSet
199 2 m 1,0,-1
 3 517 l 1,1,-1
 128 517 l 1,2,-1
 263 131 l 1,3,-1
 265 131 l 1,4,-1
 396 517 l 1,5,-1
 515 517 l 1,6,-1
 314 -28 l 2,7,8
 280 -120 280 -120 254 -152 c 0,9,10
 211 -205 211 -205 131 -205 c 0,11,12
 91 -205 91 -205 52 -199 c 1,13,-1
 52 -103 l 1,14,15
 94 -110 94 -110 106 -110 c 0,16,17
 142 -110 142 -110 161 -90 c 0,18,19
 174 -76 174 -76 186 -38 c 2,20,-1
 199 2 l 1,0,-1
EndSplineSet
EndChar

StartChar: z
Encoding: 122 122 93
Width: 500
Flags: W
LayerCount: 2
Fore
SplineSet
42 427 m 1,0,-1
 42 517 l 1,1,-1
 462 517 l 1,2,-1
 462 437 l 1,3,-1
 166 90 l 1,4,-1
 477 90 l 1,5,-1
 477 0 l 1,6,-1
 22 0 l 1,7,-1
 22 80 l 1,8,-1
 308 427 l 1,9,-1
 42 427 l 1,0,-1
EndSplineSet
EndChar

StartChar: braceleft
Encoding: 123 123 94
Width: 296
Flags: W
LayerCount: 2
Fore
SplineSet
-4 225 m 1,0,-1
 -4 315 l 1,1,2
 27 315 27 315 54 330 c 0,3,4
 90 350 90 350 90 388 c 2,5,-1
 90 594 l 2,6,7
 90 657 90 657 138 698 c 0,8,9
 177 731 177 731 218 731 c 2,10,-1
 309 731 l 1,11,-1
 309 641 l 1,12,-1
 254 641 l 2,13,14
 198 641 198 641 198 571 c 2,15,-1
 198 376 l 2,16,17
 198 323 198 323 158 295 c 0,18,19
 131 276 131 276 94 271 c 1,20,-1
 94 269 l 1,21,22
 198 259 198 259 198 158 c 2,23,-1
 198 -31 l 2,24,25
 198 -101 198 -101 254 -101 c 2,26,-1
 309 -101 l 1,27,-1
 309 -191 l 1,28,-1
 218 -191 l 2,29,30
 177 -191 177 -191 138 -158 c 0,31,32
 90 -117 90 -117 90 -54 c 2,33,-1
 90 144 l 2,34,35
 90 187 90 187 54 209 c 0,36,37
 27 225 27 225 -4 225 c 1,0,-1
EndSplineSet
EndChar

StartChar: bar
Encoding: 124 124 95
Width: 222
Flags: W
LayerCount: 2
Fore
SplineSet
60 -17 m 1,0,-1
 60 731 l 1,1,-1
 162 731 l 1,2,-1
 162 -17 l 1,3,-1
 60 -17 l 1,0,-1
EndSplineSet
EndChar

StartChar: braceright
Encoding: 125 125 96
Width: 296
Flags: W
LayerCount: 2
Fore
SplineSet
300 315 m 1,0,-1
 300 225 l 1,1,2
 269 225 269 225 243 210 c 0,3,4
 206 190 206 190 206 152 c 2,5,-1
 206 -54 l 2,6,7
 206 -117 206 -117 158 -158 c 0,8,9
 119 -191 119 -191 78 -191 c 2,10,-1
 -13 -191 l 1,11,-1
 -13 -101 l 1,12,-1
 42 -101 l 2,13,14
 98 -101 98 -101 98 -31 c 2,15,-1
 98 164 l 2,16,17
 98 217 98 217 138 245 c 0,18,19
 165 264 165 264 202 269 c 1,20,-1
 202 271 l 1,21,22
 98 281 98 281 98 382 c 2,23,-1
 98 571 l 2,24,25
 98 641 98 641 42 641 c 2,26,-1
 -13 641 l 1,27,-1
 -13 731 l 1,28,-1
 78 731 l 2,29,30
 119 731 119 731 158 698 c 0,31,32
 206 657 206 657 206 594 c 2,33,-1
 206 396 l 2,34,35
 206 353 206 353 243 331 c 0,36,37
 269 315 269 315 300 315 c 1,0,-1
EndSplineSet
EndChar

StartChar: asciitilde
Encoding: 126 126 97
Width: 600
Flags: W
LayerCount: 2
Fore
SplineSet
495 338 m 1,0,-1
 495 338 l 1,1,-1
 531 254 l 1,2,3
 501 212 501 212 481 195 c 0,4,5
 447 168 447 168 406 168 c 0,6,7
 364 168 364 168 304 201 c 0,8,9
 241 236 241 236 189 236 c 0,10,11
 140 236 140 236 105 168 c 1,12,-1
 69 252 l 1,13,14
 114 338 114 338 194 338 c 0,15,16
 232 338 232 338 305 306 c 0,17,18
 387 270 387 270 407 270 c 0,19,20
 433 270 433 270 457 292 c 0,21,22
 470 304 470 304 495 338 c 1,0,-1
EndSplineSet
EndChar

StartChar: exclamdown
Encoding: 161 161 98
Width: 278
Flags: W
LayerCount: 2
Fore
SplineSet
202 21 m 1,0,-1
 202 -183 l 1,1,-1
 77 -183 l 1,2,-1
 77 21 l 1,3,-1
 110 332 l 1,4,-1
 169 332 l 1,5,-1
 202 21 l 1,0,-1
206 531 m 1,6,-1
 206 406 l 1,7,-1
 72 406 l 1,8,-1
 72 531 l 1,9,-1
 206 531 l 1,6,-1
EndSplineSet
EndChar

StartChar: cent
Encoding: 162 162 99
Width: 556
Flags: W
LayerCount: 2
Fore
SplineSet
268 76 m 1,0,-1
 268 441 l 1,1,2
 207 435 207 435 177 375 c 0,3,4
 151 325 151 325 151 253 c 0,5,6
 151 186 151 186 178 139 c 0,7,8
 209 85 209 85 268 76 c 1,0,-1
268 -104 m 1,9,-1
 268 -14 l 1,10,11
 163 -14 163 -14 98 65 c 0,12,13
 37 140 37 140 37 253 c 0,14,15
 37 378 37 378 101.5 454.5 c 128,-1,16
 166 531 166 531 268 531 c 1,17,-1
 268 621 l 1,18,-1
 311 621 l 1,19,-1
 311 531 l 1,20,21
 396 531 396 531 456.5 480 c 128,-1,22
 517 429 517 429 524 344 c 1,23,-1
 410 344 l 1,24,25
 405 387 405 387 377.5 414 c 128,-1,26
 350 441 350 441 311 441 c 1,27,-1
 311 76 l 1,28,29
 401 91 401 91 414 194 c 1,30,-1
 528 194 l 1,31,32
 490 -14 490 -14 311 -14 c 1,33,-1
 311 -104 l 1,34,-1
 268 -104 l 1,9,-1
EndSplineSet
EndChar

StartChar: sterling
Encoding: 163 163 100
Width: 556
Flags: W
LayerCount: 2
Fore
SplineSet
31 319 m 1,0,-1
 31 384 l 1,1,-1
 94 384 l 1,2,3
 47 442 47 442 47 525 c 0,4,5
 47 615 47 615 121 675 c 0,6,7
 189 731 189 731 281 731 c 0,8,9
 398 731 398 731 464.5 668 c 128,-1,10
 531 605 531 605 532 484 c 1,11,-1
 418 484 l 1,12,13
 411 636 411 636 283 636 c 0,14,15
 235 636 235 636 205 606 c 0,16,17
 172 573 172 573 172 519 c 0,18,19
 172 469 172 469 218 384 c 1,20,-1
 365 384 l 1,21,-1
 365 319 l 1,22,-1
 242 319 l 1,23,24
 258 289 258 289 258 252 c 0,25,26
 258 163 258 163 157 88 c 1,27,-1
 159 86 l 1,28,29
 227 113 227 113 251 113 c 0,30,31
 281 113 281 113 330.5 95.5 c 128,-1,32
 380 78 380 78 406 78 c 0,33,34
 459 78 459 78 503 116 c 1,35,-1
 554 39 l 1,36,37
 489 -17 489 -17 394 -17 c 0,38,39
 375 -17 375 -17 345 -11 c 0,40,41
 298 -2 298 -2 295 -2 c 0,42,43
 229 18 229 18 190 18 c 0,44,45
 129 18 129 18 89 -16 c 1,46,-1
 36 65 l 1,47,48
 78 93 78 93 108 135 c 0,49,50
 144 184 144 184 144 227 c 0,51,52
 144 275 144 275 123 319 c 1,53,-1
 31 319 l 1,0,-1
EndSplineSet
EndChar

StartChar: currency
Encoding: 164 164 101
Width: 556
Flags: W
LayerCount: 2
Fore
SplineSet
76 90 m 1,0,-1
 20 146 l 1,1,-1
 77 207 l 1,2,3
 27 263 27 263 27 349 c 0,4,5
 27 444 27 444 77 493 c 1,6,-1
 20 554 l 1,7,-1
 77 611 l 1,8,-1
 134 555 l 1,9,10
 188 601 188 601 280 601 c 0,11,12
 367 601 367 601 417 556 c 1,13,-1
 475 613 l 1,14,-1
 536 552 l 1,15,-1
 480 494 l 1,16,17
 527 444 527 444 527 351 c 0,18,19
 527 262 527 262 479 205 c 1,20,-1
 534 146 l 1,21,-1
 479 91 l 1,22,-1
 422 149 l 1,23,24
 370 99 370 99 279 99 c 0,25,26
 186 99 186 99 132 148 c 1,27,-1
 76 90 l 1,0,-1
279 201 m 0,28,29
 339 201 339 201 379 245 c 128,-1,30
 419 289 419 289 419 351 c 0,31,32
 419 411 419 411 379 455 c 128,-1,33
 339 499 339 499 280 499 c 0,34,35
 218 499 218 499 176.5 455.5 c 128,-1,36
 135 412 135 412 135 349 c 0,37,38
 135 287 135 287 176.5 244 c 128,-1,39
 218 201 218 201 279 201 c 0,28,29
EndSplineSet
EndChar

StartChar: yen
Encoding: 165 165 102
Width: 556
Flags: W
LayerCount: 2
Fore
SplineSet
221 0 m 1,0,-1
 221 165 l 1,1,-1
 84 165 l 1,2,-1
 84 230 l 1,3,-1
 221 230 l 1,4,-1
 221 298 l 1,5,-1
 84 298 l 1,6,-1
 84 363 l 1,7,-1
 182 363 l 1,8,-1
 -5 714 l 1,9,-1
 122 714 l 1,10,-1
 278 394 l 1,11,-1
 437 714 l 1,12,-1
 561 714 l 1,13,-1
 373 363 l 1,14,-1
 472 363 l 1,15,-1
 472 298 l 1,16,-1
 335 298 l 1,17,-1
 335 230 l 1,18,-1
 472 230 l 1,19,-1
 472 165 l 1,20,-1
 335 165 l 1,21,-1
 335 0 l 1,22,-1
 221 0 l 1,0,-1
EndSplineSet
EndChar

StartChar: brokenbar
Encoding: 166 166 103
Width: 222
Flags: W
LayerCount: 2
Fore
SplineSet
60 -17 m 1,0,-1
 60 275 l 1,1,-1
 162 275 l 1,2,-1
 162 -17 l 1,3,-1
 60 -17 l 1,0,-1
60 439 m 1,4,-1
 60 731 l 1,5,-1
 162 731 l 1,6,-1
 162 439 l 1,7,-1
 60 439 l 1,4,-1
EndSplineSet
EndChar

StartChar: section
Encoding: 167 167 104
Width: 556
Flags: W
LayerCount: 2
Fore
SplineSet
357 310 m 2,0,-1
 191 405 l 1,1,2
 164 397 164 397 147 375 c 128,-1,3
 130 353 130 353 130 325 c 0,4,5
 130 278 130 278 185 247 c 2,6,-1
 367 145 l 1,7,8
 427 171 427 171 427 227 c 0,9,10
 427 270 427 270 357 310 c 2,0,-1
485 542 m 1,11,-1
 377 542 l 1,12,13
 375 585 375 585 350 613 c 128,-1,14
 325 641 325 641 283 641 c 0,15,16
 251 641 251 641 226 620 c 128,-1,17
 201 599 201 599 201 566 c 0,18,19
 201 525 201 525 253 489 c 0,20,21
 273 475 273 475 367 427 c 0,22,23
 446 387 446 387 482 353 c 0,24,25
 535 302 535 302 535 238 c 0,26,27
 535 191 535 191 504.5 150 c 128,-1,28
 474 109 474 109 429 94 c 1,29,30
 484 48 484 48 484 -34 c 0,31,32
 484 -115 484 -115 424 -162 c 0,33,34
 368 -205 368 -205 286 -205 c 0,35,36
 192 -205 192 -205 134 -152 c 0,37,38
 73 -97 73 -97 70 0 c 1,39,-1
 178 0 l 1,40,41
 186 -115 186 -115 283 -115 c 0,42,43
 370 -115 370 -115 370 -34 c 0,44,45
 370 14 370 14 316 54 c 0,46,47
 292 71 292 71 198 120 c 0,48,49
 115 163 115 163 77 197 c 0,50,51
 22 248 22 248 22 312 c 0,52,53
 22 415 22 415 130 461 c 1,54,55
 87 505 87 505 87 562 c 0,56,57
 87 638 87 638 150 687 c 0,58,59
 207 731 207 731 284 731 c 0,60,61
 371 731 371 731 427.5 680 c 128,-1,62
 484 629 484 629 485 542 c 1,11,-1
EndSplineSet
EndChar

StartChar: dieresis
Encoding: 168 168 105
Width: 241
Flags: W
LayerCount: 2
Fore
SplineSet
150 707 m 1,0,-1
 264 707 l 1,1,-1
 264 599 l 1,2,-1
 150 599 l 1,3,-1
 150 707 l 1,0,-1
92 599 m 1,4,-1
 -22 599 l 1,5,-1
 -22 707 l 1,6,-1
 92 707 l 1,7,-1
 92 599 l 1,4,-1
EndSplineSet
EndChar

StartChar: copyright
Encoding: 169 169 106
Width: 800
Flags: W
LayerCount: 2
Fore
SplineSet
767 357 m 256,0,1
 767 192 767 192 659.5 87.5 c 128,-1,2
 552 -17 552 -17 401 -17 c 0,3,4
 241 -17 241 -17 137 89.5 c 128,-1,5
 33 196 33 196 33 357 c 0,6,7
 33 522 33 522 143 628 c 0,8,9
 248 731 248 731 401 731 c 0,10,11
 552 731 552 731 658 628 c 0,12,13
 767 522 767 522 767 357 c 256,0,1
687 357 m 256,14,15
 687 492 687 492 604.5 579 c 128,-1,16
 522 666 522 666 401 666 c 0,17,18
 278 666 278 666 195.5 579 c 128,-1,19
 113 492 113 492 113 357 c 0,20,21
 113 226 113 226 190 139 c 0,22,23
 271 48 271 48 401 48 c 0,24,25
 523 48 523 48 605 135 c 128,-1,26
 687 222 687 222 687 357 c 256,14,15
521 285 m 1,27,-1
 590 285 l 1,28,29
 577 215 577 215 528.5 173 c 128,-1,30
 480 131 480 131 413 131 c 0,31,32
 318 131 318 131 259.5 195 c 128,-1,33
 201 259 201 259 201 357 c 0,34,35
 201 450 201 450 258 511 c 128,-1,36
 315 572 315 572 411 572 c 0,37,38
 481 572 481 572 530 532.5 c 128,-1,39
 579 493 579 493 589 421 c 1,40,-1
 521 421 l 1,41,42
 513 460 513 460 483 483.5 c 128,-1,43
 453 507 453 507 411 507 c 0,44,45
 350 507 350 507 315.5 464.5 c 128,-1,46
 281 422 281 422 281 357 c 0,47,48
 281 290 281 290 317.5 243 c 128,-1,49
 354 196 354 196 413 196 c 0,50,51
 457 196 457 196 486.5 221 c 128,-1,52
 516 246 516 246 521 285 c 1,27,-1
EndSplineSet
EndChar

StartChar: ordfeminine
Encoding: 170 170 107
Width: 380
Flags: W
LayerCount: 2
Fore
SplineSet
244 491 m 2,0,-1
 244 535 l 1,1,2
 228 527 228 527 160 516 c 0,3,4
 103 507 103 507 103 471 c 0,5,6
 103 438 103 438 159 438 c 0,7,8
 244 438 244 438 244 491 c 2,0,-1
331 621 m 2,9,-1
 331 470 l 2,10,11
 331 447 331 447 348 448 c 0,12,13
 353 448 353 448 364 449 c 1,14,-1
 364 381 l 1,15,16
 342 373 342 373 317 373 c 0,17,18
 263 373 263 373 255 422 c 1,19,20
 241 401 241 401 205.5 387 c 128,-1,21
 170 373 170 373 138 373 c 0,22,23
 88 373 88 373 52 397.5 c 128,-1,24
 16 422 16 422 16 466 c 0,25,26
 16 517 16 517 60 541 c 0,27,28
 85 555 85 555 151 566 c 0,29,30
 208 576 208 576 217 579 c 0,31,32
 244 587 244 587 244 604 c 0,33,34
 244 649 244 649 184 649 c 0,35,36
 118 649 118 649 114 607 c 1,37,-1
 29 607 l 1,38,39
 39 714 39 714 189 714 c 0,40,41
 247 714 247 714 286 692 c 0,42,43
 331 667 331 667 331 621 c 2,9,-1
EndSplineSet
EndChar

StartChar: guillemotleft
Encoding: 171 171 108
Width: 463
Flags: W
LayerCount: 2
Fore
SplineSet
205 93 m 1,0,-1
 50 216 l 1,1,-1
 50 328 l 1,2,-1
 205 451 l 1,3,-1
 205 348 l 1,4,-1
 110 272 l 1,5,-1
 205 196 l 1,6,-1
 205 93 l 1,0,-1
403 93 m 1,7,-1
 248 216 l 1,8,-1
 248 328 l 1,9,-1
 403 451 l 1,10,-1
 403 348 l 1,11,-1
 308 272 l 1,12,-1
 403 196 l 1,13,-1
 403 93 l 1,7,-1
EndSplineSet
EndChar

StartChar: logicalnot
Encoding: 172 172 109
Width: 600
Flags: W
LayerCount: 2
Fore
SplineSet
450 108 m 1,0,-1
 450 303 l 1,1,-1
 48 303 l 1,2,-1
 48 405 l 1,3,-1
 552 405 l 1,4,-1
 552 108 l 1,5,-1
 450 108 l 1,0,-1
EndSplineSet
EndChar

StartChar: registered
Encoding: 174 174 110
Width: 800
Flags: W
LayerCount: 2
Fore
SplineSet
327 320 m 1,0,-1
 327 143 l 1,1,-1
 259 143 l 1,2,-1
 259 557 l 1,3,-1
 416 557 l 2,4,5
 567 557 567 557 567 438 c 0,6,7
 567 337 567 337 459 325 c 1,8,-1
 575 143 l 1,9,-1
 498 143 l 1,10,-1
 391 320 l 1,11,-1
 327 320 l 1,0,-1
327 378 m 1,12,-1
 403 378 l 2,13,14
 450 378 450 378 470 388 c 0,15,16
 499 402 499 402 499 443 c 0,17,18
 499 499 499 499 409 499 c 2,19,-1
 327 499 l 1,20,-1
 327 378 l 1,12,-1
767 357 m 256,21,22
 767 192 767 192 659.5 87.5 c 128,-1,23
 552 -17 552 -17 401 -17 c 0,24,25
 241 -17 241 -17 137 89.5 c 128,-1,26
 33 196 33 196 33 357 c 0,27,28
 33 522 33 522 143 628 c 0,29,30
 248 731 248 731 401 731 c 0,31,32
 552 731 552 731 658 628 c 0,33,34
 767 522 767 522 767 357 c 256,21,22
687 357 m 256,35,36
 687 492 687 492 604.5 579 c 128,-1,37
 522 666 522 666 401 666 c 0,38,39
 278 666 278 666 195.5 579 c 128,-1,40
 113 492 113 492 113 357 c 0,41,42
 113 226 113 226 190 139 c 0,43,44
 271 48 271 48 401 48 c 0,45,46
 523 48 523 48 605 135 c 128,-1,47
 687 222 687 222 687 357 c 256,35,36
EndSplineSet
EndChar

StartChar: degree
Encoding: 176 176 111
Width: 400
Flags: W
LayerCount: 2
Fore
SplineSet
50 564 m 256,0,1
 50 626 50 626 94 670 c 128,-1,2
 138 714 138 714 200 714 c 256,3,4
 262 714 262 714 306 670 c 128,-1,5
 350 626 350 626 350 564 c 256,6,7
 350 502 350 502 306 458 c 128,-1,8
 262 414 262 414 200 414 c 256,9,10
 138 414 138 414 94 458 c 128,-1,11
 50 502 50 502 50 564 c 256,0,1
106 564 m 256,12,13
 106 525 106 525 133.5 497.5 c 128,-1,14
 161 470 161 470 200 470 c 256,15,16
 239 470 239 470 266.5 497.5 c 128,-1,17
 294 525 294 525 294 564 c 256,18,19
 294 603 294 603 266.5 630.5 c 128,-1,20
 239 658 239 658 200 658 c 256,21,22
 161 658 161 658 133.5 630.5 c 128,-1,23
 106 603 106 603 106 564 c 256,12,13
EndSplineSet
EndChar

StartChar: plusminus
Encoding: 177 177 112
Width: 600
Flags: W
LayerCount: 2
Fore
SplineSet
249 381 m 1,0,-1
 249 506 l 1,1,-1
 351 506 l 1,2,-1
 351 381 l 1,3,-1
 552 381 l 1,4,-1
 552 279 l 1,5,-1
 351 279 l 1,6,-1
 351 154 l 1,7,-1
 249 154 l 1,8,-1
 249 279 l 1,9,-1
 48 279 l 1,10,-1
 48 381 l 1,11,-1
 249 381 l 1,0,-1
48 0 m 1,12,-1
 48 102 l 1,13,-1
 552 102 l 1,14,-1
 552 0 l 1,15,-1
 48 0 l 1,12,-1
EndSplineSet
EndChar

StartChar: twosuperior
Encoding: 178 178 113
Width: 360
Flags: W
LayerCount: 2
Fore
SplineSet
336 343 m 1,0,-1
 336 273 l 1,1,-1
 21 273 l 1,2,3
 22 380 22 380 121 444 c 0,4,5
 210 501 210 501 212 503 c 0,6,7
 258 540 258 540 259 582 c 0,8,9
 260 644 260 644 186 644 c 0,10,11
 117 644 117 644 113 551 c 1,12,-1
 26 551 l 1,13,14
 26 627 26 627 70 670.5 c 128,-1,15
 114 714 114 714 190 714 c 0,16,17
 258 714 258 714 300 684 c 0,18,19
 346 649 346 649 346 584 c 0,20,21
 346 509 346 509 244 443 c 0,22,23
 206 419 206 419 168.5 394 c 128,-1,24
 131 369 131 369 123 343 c 1,25,-1
 336 343 l 1,0,-1
EndSplineSet
EndChar

StartChar: threesuperior
Encoding: 179 179 114
Width: 360
Flags: W
LayerCount: 2
Fore
SplineSet
146 475 m 1,0,-1
 146 533 l 1,1,2
 188 531 188 531 215 545 c 0,3,4
 247 561 247 561 247 594 c 0,5,6
 247 619 247 619 224 633 c 0,7,8
 205 644 205 644 178 644 c 0,9,10
 145 644 145 644 124.5 622.5 c 128,-1,11
 104 601 104 601 105 568 c 1,12,-1
 25 568 l 1,13,14
 28 637 28 637 69 675.5 c 128,-1,15
 110 714 110 714 179 714 c 0,16,17
 241 714 241 714 281 688 c 0,18,19
 327 657 327 657 327 598 c 0,20,21
 327 530 327 530 263 508 c 1,22,-1
 263 506 l 1,23,24
 301 499 301 499 323 470.5 c 128,-1,25
 345 442 345 442 345 401 c 0,26,27
 345 337 345 337 298 300.5 c 128,-1,28
 251 264 251 264 180 264 c 0,29,30
 19 264 19 264 16 419 c 1,31,-1
 96 419 l 1,32,33
 94 382 94 382 116.5 358 c 128,-1,34
 139 334 139 334 180 334 c 0,35,36
 216 334 216 334 240.5 353.5 c 128,-1,37
 265 373 265 373 265 405 c 0,38,39
 265 479 265 479 146 475 c 1,0,-1
EndSplineSet
EndChar

StartChar: acute
Encoding: 180 180 115
Width: 241
Flags: W
LayerCount: 2
Fore
SplineSet
45 588 m 1,0,-1
 135 731 l 1,1,-1
 270 731 l 1,2,-1
 128 588 l 1,3,-1
 45 588 l 1,0,-1
EndSplineSet
EndChar

StartChar: paragraph
Encoding: 182 182 116
Width: 600
Flags: W
LayerCount: 2
Fore
SplineSet
246 -160 m 1,0,-1
 246 344 l 1,1,2
 150 344 150 344 90.5 395 c 128,-1,3
 31 446 31 446 31 526 c 0,4,5
 31 714 31 714 264 714 c 2,6,-1
 523 714 l 1,7,-1
 523 -160 l 1,8,-1
 443 -160 l 1,9,-1
 443 649 l 1,10,-1
 326 649 l 1,11,-1
 326 -160 l 1,12,-1
 246 -160 l 1,0,-1
EndSplineSet
EndChar

StartChar: cedilla
Encoding: 184 184 117
Width: 241
Flags: W
LayerCount: 2
Fore
SplineSet
9 -200 m 1,0,-1
 27 -160 l 1,1,2
 75 -176 75 -176 92 -176 c 0,3,4
 153 -176 153 -176 153 -135 c 0,5,6
 153 -117 153 -117 139 -107 c 128,-1,7
 125 -97 125 -97 107 -97 c 0,8,9
 85 -97 85 -97 68 -107 c 1,10,-1
 46 -88 l 1,11,-1
 112 0 l 1,12,-1
 160 0 l 1,13,-1
 115 -58 l 1,14,-1
 115 -60 l 1,15,16
 123 -57 123 -57 148 -57 c 0,17,18
 181 -57 181 -57 205 -75 c 0,19,20
 233 -96 233 -96 233 -131 c 0,21,22
 233 -178 233 -178 194 -202 c 0,23,24
 162 -221 162 -221 112 -221 c 0,25,26
 45 -221 45 -221 9 -200 c 1,0,-1
EndSplineSet
EndChar

StartChar: onesuperior
Encoding: 185 185 118
Width: 360
Flags: W
LayerCount: 2
Fore
SplineSet
36 577 m 1,0,-1
 36 635 l 1,1,2
 157 635 157 635 174 705 c 1,3,-1
 244 705 l 1,4,-1
 244 273 l 1,5,-1
 157 273 l 1,6,-1
 157 577 l 1,7,-1
 36 577 l 1,0,-1
EndSplineSet
EndChar

StartChar: ordmasculine
Encoding: 186 186 119
Width: 380
Flags: W
LayerCount: 2
Fore
SplineSet
284 543 m 0,0,1
 285 584 285 584 262 615 c 0,2,3
 236 649 236 649 193 649 c 256,4,5
 150 649 150 649 124 615 c 0,6,7
 102 585 102 585 102 543 c 256,8,9
 102 501 102 501 124 472 c 0,10,11
 150 438 150 438 193 438 c 0,12,13
 237 438 237 438 262 472 c 0,14,15
 283 500 283 500 284 543 c 0,0,1
371 543 m 256,16,17
 371 465 371 465 326 420 c 0,18,19
 278 373 278 373 193 373 c 256,20,21
 108 373 108 373 61.5 419 c 128,-1,22
 15 465 15 465 15 543 c 256,23,24
 15 621 15 621 61.5 667.5 c 128,-1,25
 108 714 108 714 193 714 c 256,26,27
 278 714 278 714 326 667 c 0,28,29
 371 621 371 621 371 543 c 256,16,17
EndSplineSet
EndChar

StartChar: guillemotright
Encoding: 187 187 120
Width: 463
Flags: W
LayerCount: 2
Fore
SplineSet
60 451 m 1,0,-1
 215 328 l 1,1,-1
 215 216 l 1,2,-1
 60 93 l 1,3,-1
 60 196 l 1,4,-1
 155 272 l 1,5,-1
 60 348 l 1,6,-1
 60 451 l 1,0,-1
258 451 m 1,7,-1
 413 328 l 1,8,-1
 413 216 l 1,9,-1
 258 93 l 1,10,-1
 258 196 l 1,11,-1
 353 272 l 1,12,-1
 258 348 l 1,13,-1
 258 451 l 1,7,-1
EndSplineSet
EndChar

StartChar: onequarter
Encoding: 188 188 121
Width: 834
Flags: W
LayerCount: 2
Fore
SplineSet
719 97 m 1,0,-1
 719 0 l 1,1,-1
 632 0 l 1,2,-1
 632 97 l 1,3,-1
 437 97 l 1,4,-1
 437 178 l 1,5,-1
 622 428 l 1,6,-1
 719 428 l 1,7,-1
 719 172 l 1,8,-1
 766 172 l 1,9,-1
 766 97 l 1,10,-1
 719 97 l 1,0,-1
632 172 m 1,11,-1
 632 330 l 1,12,-1
 630 330 l 1,13,-1
 513 172 l 1,14,-1
 632 172 l 1,11,-1
37 577 m 1,15,-1
 37 635 l 1,16,17
 158 635 158 635 175 705 c 1,18,-1
 245 705 l 1,19,-1
 245 273 l 1,20,-1
 158 273 l 1,21,-1
 158 577 l 1,22,-1
 37 577 l 1,15,-1
141 -24 m 1,23,-1
 560 724 l 1,24,-1
 638 724 l 1,25,-1
 220 -24 l 1,26,-1
 141 -24 l 1,23,-1
EndSplineSet
EndChar

StartChar: onehalf
Encoding: 189 189 122
Width: 834
Flags: W
LayerCount: 2
Fore
SplineSet
137 -24 m 1,0,-1
 556 724 l 1,1,-1
 634 724 l 1,2,-1
 216 -24 l 1,3,-1
 137 -24 l 1,0,-1
36 577 m 1,4,-1
 36 635 l 1,5,6
 157 635 157 635 174 705 c 1,7,-1
 244 705 l 1,8,-1
 244 273 l 1,9,-1
 157 273 l 1,10,-1
 157 577 l 1,11,-1
 36 577 l 1,4,-1
788 70 m 1,12,-1
 788 0 l 1,13,-1
 473 0 l 1,14,15
 473 67 473 67 510 116 c 0,16,17
 536 149 536 149 592 184 c 0,18,19
 671 234 671 234 673 236 c 0,20,21
 711 267 711 267 711 309 c 0,22,23
 711 340 711 340 690.5 358 c 128,-1,24
 670 376 670 376 638 376 c 0,25,26
 569 376 569 376 565 278 c 1,27,-1
 478 278 l 1,28,29
 478 356 478 356 521 401 c 128,-1,30
 564 446 564 446 642 446 c 0,31,32
 710 446 710 446 752 413 c 0,33,34
 798 377 798 377 798 311 c 0,35,36
 798 235 798 235 696 170 c 0,37,38
 658 146 658 146 621 123 c 0,39,40
 583 96 583 96 575 70 c 1,41,-1
 788 70 l 1,12,-1
EndSplineSet
EndChar

StartChar: threequarters
Encoding: 190 190 123
Width: 834
Flags: W
LayerCount: 2
Fore
SplineSet
756 97 m 1,0,-1
 756 0 l 1,1,-1
 669 0 l 1,2,-1
 669 97 l 1,3,-1
 474 97 l 1,4,-1
 474 178 l 1,5,-1
 657 428 l 1,6,-1
 756 428 l 1,7,-1
 756 172 l 1,8,-1
 803 172 l 1,9,-1
 803 97 l 1,10,-1
 756 97 l 1,0,-1
669 172 m 1,11,-1
 669 330 l 1,12,-1
 667 330 l 1,13,-1
 550 172 l 1,14,-1
 669 172 l 1,11,-1
196 -24 m 1,15,-1
 615 724 l 1,16,-1
 693 724 l 1,17,-1
 275 -24 l 1,18,-1
 196 -24 l 1,15,-1
146 474 m 1,19,-1
 146 532 l 1,20,21
 188 530 188 530 215 544 c 0,22,23
 247 561 247 561 247 594 c 0,24,25
 247 619 247 619 224 633 c 0,26,27
 205 644 205 644 178 644 c 0,28,29
 145 644 145 644 124.5 622.5 c 128,-1,30
 104 601 104 601 105 568 c 1,31,-1
 25 568 l 1,32,33
 28 637 28 637 69 675.5 c 128,-1,34
 110 714 110 714 179 714 c 0,35,36
 241 714 241 714 281 688 c 0,37,38
 327 657 327 657 327 598 c 0,39,40
 327 530 327 530 263 508 c 1,41,-1
 263 506 l 1,42,43
 301 499 301 499 323 470.5 c 128,-1,44
 345 442 345 442 345 401 c 0,45,46
 345 337 345 337 298 300.5 c 128,-1,47
 251 264 251 264 180 264 c 0,48,49
 19 264 19 264 16 419 c 1,50,-1
 96 419 l 1,51,52
 94 382 94 382 116.5 358 c 128,-1,53
 139 334 139 334 180 334 c 0,54,55
 216 334 216 334 240.5 353.5 c 128,-1,56
 265 373 265 373 265 405 c 0,57,58
 265 478 265 478 146 474 c 1,19,-1
EndSplineSet
EndChar

StartChar: questiondown
Encoding: 191 191 124
Width: 556
Flags: W
LayerCount: 2
Fore
SplineSet
393 39 m 1,0,-1
 507 39 l 1,1,2
 508 -68 508 -68 442.5 -134 c 128,-1,3
 377 -200 377 -200 267 -200 c 0,4,5
 173 -200 173 -200 111 -147 c 128,-1,6
 49 -94 49 -94 49 -3 c 0,7,8
 49 59 49 59 77 101 c 0,9,10
 92 125 92 125 138.5 164 c 128,-1,11
 185 203 185 203 200 228 c 0,12,13
 225 267 225 267 225 332 c 1,14,-1
 333 332 l 1,15,16
 333 249 333 249 314 204 c 0,17,18
 298 166 298 166 255 129 c 0,19,20
 208 88 208 88 198 76 c 0,21,22
 174 45 174 45 174 1 c 0,23,24
 174 -50 174 -50 210 -81 c 0,25,26
 238 -105 238 -105 272 -105 c 0,27,28
 332 -105 332 -105 362.5 -66 c 128,-1,29
 393 -27 393 -27 393 39 c 1,0,-1
210 531 m 1,30,-1
 344 531 l 1,31,-1
 344 406 l 1,32,-1
 210 406 l 1,33,-1
 210 531 l 1,30,-1
EndSplineSet
EndChar

StartChar: AE
Encoding: 198 198 131
Width: 963
Flags: W
LayerCount: 2
Fore
SplineSet
421 606 m 1,0,-1
 264 278 l 1,1,-1
 457 278 l 1,2,-1
 457 606 l 1,3,-1
 421 606 l 1,0,-1
-7 0 m 1,4,-1
 348 714 l 1,5,-1
 924 714 l 1,6,-1
 924 606 l 1,7,-1
 576 606 l 1,8,-1
 576 419 l 1,9,-1
 902 419 l 1,10,-1
 902 317 l 1,11,-1
 576 317 l 1,12,-1
 576 108 l 1,13,-1
 930 108 l 1,14,-1
 930 0 l 1,15,-1
 457 0 l 1,16,-1
 457 183 l 1,17,-1
 218 183 l 1,18,-1
 132 0 l 1,19,-1
 -7 0 l 1,4,-1
EndSplineSet
EndChar

StartChar: Ccedilla
Encoding: 199 199 132
Width: 722
Flags: W
LayerCount: 2
Fore
SplineSet
562 272 m 1,0,-1
 684 272 l 1,1,2
 676 145 676 145 594.5 65 c 128,-1,3
 513 -15 513 -15 387 -16 c 1,4,-1
 355 -58 l 1,5,-1
 355 -60 l 1,6,7
 363 -57 363 -57 388 -57 c 0,8,9
 421 -57 421 -57 445 -75 c 0,10,11
 473 -96 473 -96 473 -131 c 0,12,13
 473 -178 473 -178 434 -202 c 0,14,15
 402 -221 402 -221 352 -221 c 0,16,17
 285 -221 285 -221 249 -200 c 1,18,-1
 267 -160 l 1,19,20
 315 -176 315 -176 332 -176 c 0,21,22
 393 -176 393 -176 393 -135 c 0,23,24
 393 -117 393 -117 379 -107 c 128,-1,25
 365 -97 365 -97 347 -97 c 0,26,27
 325 -97 325 -97 308 -107 c 1,28,-1
 286 -88 l 1,29,-1
 341 -15 l 1,30,31
 202 -1 202 -1 118 107 c 0,32,33
 38 210 38 210 38 357 c 0,34,35
 38 516 38 516 129 621 c 0,36,37
 224 731 224 731 380 731 c 0,38,39
 503 731 503 731 586 667 c 0,40,41
 672 600 672 600 683 487 c 1,42,-1
 558 487 l 1,43,44
 522 629 522 629 380 629 c 0,45,46
 273 629 273 629 214 544 c 0,47,48
 163 470 163 470 163 357 c 256,49,50
 163 244 163 244 214 170 c 0,51,52
 273 85 273 85 380 85 c 0,53,54
 460 85 460 85 509 140 c 0,55,56
 554 190 554 190 562 272 c 1,0,-1
EndSplineSet
EndChar

StartChar: Eth
Encoding: 208 208 141
Width: 722
Flags: W
LayerCount: 2
Fore
SplineSet
76 0 m 1,0,-1
 76 317 l 1,1,-1
 9 317 l 1,2,-1
 9 419 l 1,3,-1
 76 419 l 1,4,-1
 76 714 l 1,5,-1
 372 714 l 2,6,7
 529 714 529 714 612 609 c 0,8,9
 687 515 687 515 687 357 c 256,10,11
 687 199 687 199 612 105 c 0,12,13
 529 0 529 0 372 0 c 2,14,-1
 76 0 l 1,0,-1
201 612 m 1,15,-1
 201 419 l 1,16,-1
 396 419 l 1,17,-1
 396 317 l 1,18,-1
 201 317 l 1,19,-1
 201 102 l 1,20,-1
 324 102 l 2,21,22
 460 102 460 102 517 176 c 0,23,24
 562 236 562 236 562 357 c 256,25,26
 562 478 562 478 517 538 c 0,27,28
 460 612 460 612 324 612 c 2,29,-1
 201 612 l 1,15,-1
EndSplineSet
EndChar

StartChar: multiply
Encoding: 215 215 148
Width: 600
Flags: W
LayerCount: 2
Fore
SplineSet
229 253 m 1,0,-1
 55 427 l 1,1,-1
 141 483 l 1,2,-1
 299 324 l 1,3,-1
 459 483 l 1,4,-1
 545 427 l 1,5,-1
 370 253 l 1,6,-1
 545 79 l 1,7,-1
 459 23 l 1,8,-1
 299 183 l 1,9,-1
 141 23 l 1,10,-1
 55 79 l 1,11,-1
 229 253 l 1,0,-1
EndSplineSet
EndChar

StartChar: Oslash
Encoding: 216 216 149
Width: 760
Flags: W
LayerCount: 2
Fore
SplineSet
199 196 m 1,0,-1
 528 566 l 1,1,2
 473 629 473 629 380 629 c 0,3,4
 273 629 273 629 214 544 c 0,5,6
 163 470 163 470 163 357 c 0,7,8
 163 262 163 262 199 196 c 1,0,-1
560 518 m 1,9,-1
 232 148 l 1,10,11
 290 85 290 85 380 85 c 0,12,13
 487 85 487 85 546 170 c 0,14,15
 597 244 597 244 597 357 c 0,16,17
 597 451 597 451 560 518 c 1,9,-1
677 734 m 1,18,-1
 720 698 l 1,19,-1
 641 609 l 1,20,21
 722 505 722 505 722 357 c 0,22,23
 722 199 722 199 631 94 c 0,24,25
 536 -17 536 -17 380 -17 c 0,26,27
 246 -17 246 -17 158 65 c 1,28,-1
 82 -20 l 1,29,-1
 40 16 l 1,30,-1
 119 106 l 1,31,32
 38 209 38 209 38 357 c 0,33,34
 38 515 38 515 129 621 c 0,35,36
 224 731 224 731 380 731 c 0,37,38
 513 731 513 731 602 650 c 1,39,-1
 677 734 l 1,18,-1
EndSplineSet
EndChar

StartChar: Thorn
Encoding: 222 222 155
Width: 667
Flags: W
LayerCount: 2
Fore
SplineSet
76 0 m 1,0,-1
 76 714 l 1,1,-1
 201 714 l 1,2,-1
 201 606 l 1,3,-1
 391 606 l 2,4,5
 527 606 527 606 589 529 c 0,6,7
 634 473 634 473 634 385 c 0,8,9
 634 298 634 298 589 243 c 0,10,11
 527 166 527 166 391 166 c 2,12,-1
 201 166 l 1,13,-1
 201 0 l 1,14,-1
 76 0 l 1,0,-1
201 504 m 1,15,-1
 201 268 l 1,16,-1
 384 268 l 2,17,18
 434 268 434 268 468 293 c 0,19,20
 509 324 509 324 509 386 c 0,21,22
 509 504 509 504 386 504 c 2,23,-1
 201 504 l 1,15,-1
EndSplineSet
EndChar

StartChar: germandbls
Encoding: 223 223 156
Width: 574
Flags: W
LayerCount: 2
Fore
SplineSet
63 0 m 1,0,-1
 63 523 l 2,1,2
 63 619 63 619 124 675 c 128,-1,3
 185 731 185 731 282 731 c 0,4,5
 368 731 368 731 429 684 c 0,6,7
 495 633 495 633 495 551 c 0,8,9
 495 498 495 498 470 458 c 0,10,11
 443 415 443 415 393 400 c 1,12,-1
 393 398 l 1,13,14
 454 391 454 391 492 339 c 0,15,16
 527 291 527 291 527 227 c 0,17,18
 527 122 527 122 464.5 54 c 128,-1,19
 402 -14 402 -14 298 -14 c 0,20,21
 271 -14 271 -14 242 -11 c 1,22,-1
 242 79 l 1,23,24
 257 76 257 76 281 76 c 0,25,26
 413 76 413 76 413 232 c 0,27,28
 413 296 413 296 358 330 c 0,29,30
 318 355 318 355 243 355 c 1,31,-1
 243 430 l 1,32,33
 310 430 310 430 342 456 c 0,34,35
 381 487 381 487 381 540 c 0,36,37
 381 641 381 641 280 641 c 0,38,39
 177 641 177 641 177 511 c 2,40,-1
 177 0 l 1,41,-1
 63 0 l 1,0,-1
EndSplineSet
EndChar

StartChar: ae
Encoding: 230 230 163
Width: 889
Flags: W
LayerCount: 2
Fore
SplineSet
487 304 m 1,0,-1
 748 304 l 1,1,2
 749 366 749 366 714 403.5 c 128,-1,3
 679 441 679 441 617 441 c 0,4,5
 559 441 559 441 524 400 c 0,6,7
 491 363 491 363 487 304 c 1,0,-1
379 180 m 2,8,-1
 379 257 l 1,9,10
 364 243 364 243 320 237 c 0,11,12
 280 233 280 233 240 228 c 0,13,14
 146 213 146 213 146 142 c 0,15,16
 146 76 146 76 250 76 c 0,17,18
 301 76 301 76 338 103 c 0,19,20
 379 132 379 132 379 180 c 2,8,-1
744 163 m 1,21,-1
 858 163 l 1,22,23
 836 81 836 81 773 33.5 c 128,-1,24
 710 -14 710 -14 624 -14 c 0,25,26
 488 -14 488 -14 434 81 c 1,27,28
 370 -14 370 -14 219 -14 c 0,29,30
 138 -14 138 -14 87 24 c 0,31,32
 32 64 32 64 32 137 c 0,33,34
 32 223 32 223 96 261 c 0,35,36
 135 284 135 284 231 298 c 0,37,38
 333 313 333 313 336 314 c 0,39,40
 380 327 380 327 380 371 c 0,41,42
 380 441 380 441 279 441 c 0,43,44
 172 441 172 441 165 359 c 1,45,-1
 51 359 l 1,46,47
 57 451 57 451 128 495 c 0,48,49
 187 531 187 531 283 531 c 0,50,51
 411 531 411 531 458 461 c 1,52,53
 511 531 511 531 622 531 c 0,54,55
 741 531 741 531 804 455 c 0,56,57
 863 384 863 384 863 261 c 0,58,59
 863 245 863 245 862 229 c 1,60,-1
 487 229 l 1,61,62
 486 165 486 165 519 123 c 0,63,64
 555 76 555 76 622 76 c 0,65,66
 713 76 713 76 744 163 c 1,21,-1
EndSplineSet
EndChar

StartChar: ccedilla
Encoding: 231 231 164
Width: 556
Flags: W
LayerCount: 2
Fore
SplineSet
409 194 m 1,0,-1
 523 194 l 1,1,2
 492 -3 492 -3 307 -12 c 1,3,-1
 272 -58 l 1,4,-1
 272 -60 l 1,5,6
 280 -57 280 -57 305 -57 c 0,7,8
 338 -57 338 -57 362 -75 c 0,9,10
 390 -96 390 -96 390 -131 c 0,11,12
 390 -178 390 -178 351 -202 c 0,13,14
 319 -221 319 -221 269 -221 c 0,15,16
 202 -221 202 -221 166 -200 c 1,17,-1
 184 -160 l 1,18,19
 232 -176 232 -176 249 -176 c 0,20,21
 310 -176 310 -176 310 -135 c 0,22,23
 310 -117 310 -117 296 -107 c 128,-1,24
 282 -97 282 -97 264 -97 c 0,25,26
 242 -97 242 -97 225 -107 c 1,27,-1
 203 -88 l 1,28,-1
 260 -12 l 1,29,30
 153 -4 153 -4 93 71 c 0,31,32
 35 142 35 142 35 253 c 0,33,34
 35 376 35 376 99 451 c 0,35,36
 167 531 167 531 290 531 c 0,37,38
 385 531 385 531 447 485 c 0,39,40
 515 435 515 435 523 344 c 1,41,-1
 409 344 l 1,42,43
 395 441 395 441 291 441 c 0,44,45
 234 441 234 441 198 406 c 0,46,47
 149 358 149 358 149 253 c 0,48,49
 149 180 149 180 180 132 c 0,50,51
 217 76 217 76 286 76 c 0,52,53
 336 76 336 76 368.5 107.5 c 128,-1,54
 401 139 401 139 409 194 c 1,0,-1
EndSplineSet
EndChar

StartChar: eth
Encoding: 240 240 173
Width: 593
Flags: W
LayerCount: 2
Fore
SplineSet
299 416 m 0,0,1
 156 416 156 416 156 245 c 0,2,3
 156 172 156 172 188 126 c 0,4,5
 223 76 223 76 288 76 c 0,6,7
 354 76 354 76 397 128 c 0,8,9
 436 177 436 177 436 245 c 0,10,11
 436 316 436 316 404 363 c 0,12,13
 367 416 367 416 299 416 c 0,0,1
194 541 m 1,14,-1
 144 590 l 1,15,-1
 240 636 l 1,16,17
 211 649 211 649 155 670 c 1,18,-1
 231 731 l 1,19,20
 286 713 286 713 335 681 c 1,21,-1
 440 731 l 1,22,-1
 489 682 l 1,23,-1
 395 637 l 1,24,25
 550 510 550 510 550 309 c 0,26,27
 550 165 550 165 489 81 c 0,28,29
 419 -14 419 -14 281 -14 c 0,30,31
 169 -14 169 -14 105 61 c 0,32,33
 42 133 42 133 42 252 c 0,34,35
 42 355 42 355 102 428 c 0,36,37
 165 506 165 506 265 506 c 0,38,39
 346 506 346 506 408 462 c 1,40,-1
 410 462 l 1,41,42
 381 526 381 526 302 593 c 1,43,-1
 194 541 l 1,14,-1
EndSplineSet
EndChar

StartChar: divide
Encoding: 247 247 180
Width: 600
Flags: W
LayerCount: 2
Fore
SplineSet
552 202 m 1,0,-1
 48 202 l 1,1,-1
 48 304 l 1,2,-1
 552 304 l 1,3,-1
 552 202 l 1,0,-1
301 387 m 0,4,5
 272 387 272 387 250 408.5 c 128,-1,6
 228 430 228 430 228 459 c 0,7,8
 228 489 228 489 249.5 510 c 128,-1,9
 271 531 271 531 300 531 c 256,10,11
 329 531 329 531 350.5 509.5 c 128,-1,12
 372 488 372 488 372 459 c 0,13,14
 372 432 372 432 350.5 409.5 c 128,-1,15
 329 387 329 387 301 387 c 0,4,5
301 -25 m 0,16,17
 272 -25 272 -25 250 -3.5 c 128,-1,18
 228 18 228 18 228 47 c 0,19,20
 228 77 228 77 249.5 98 c 128,-1,21
 271 119 271 119 300 119 c 256,22,23
 329 119 329 119 350.5 97.5 c 128,-1,24
 372 76 372 76 372 47 c 0,25,26
 372 20 372 20 350.5 -2.5 c 128,-1,27
 329 -25 329 -25 301 -25 c 0,16,17
EndSplineSet
EndChar

StartChar: oslash
Encoding: 248 248 181
Width: 593
Flags: W
LayerCount: 2
Fore
SplineSet
421 362 m 1,0,-1
 198 118 l 1,1,2
 237 76 237 76 297 76 c 0,3,4
 369 76 369 76 409 134 c 0,5,6
 444 184 444 184 444 259 c 0,7,8
 444 317 444 317 421 362 c 1,0,-1
64 -28 m 1,9,-1
 32 0 l 1,10,-1
 97 72 l 1,11,12
 36 145 36 145 36 259 c 0,13,14
 36 380 36 380 105.5 455.5 c 128,-1,15
 175 531 175 531 297 531 c 0,16,17
 401 531 401 531 467 476 c 1,18,-1
 530 545 l 1,19,-1
 562 517 l 1,20,-1
 497 446 l 1,21,22
 558 371 558 371 558 259 c 0,23,24
 558 137 558 137 490 63 c 0,25,26
 419 -14 419 -14 297 -14 c 0,27,28
 195 -14 195 -14 128 42 c 1,29,-1
 64 -28 l 1,9,-1
173 155 m 1,30,-1
 396 399 l 1,31,32
 357 441 357 441 297 441 c 0,33,34
 225 441 225 441 185 383 c 0,35,36
 150 333 150 333 150 259 c 0,37,38
 150 200 150 200 173 155 c 1,30,-1
EndSplineSet
EndChar

StartChar: thorn
Encoding: 254 254 187
Width: 611
Flags: W
LayerCount: 2
Fore
SplineSet
63 -191 m 1,0,-1
 63 714 l 1,1,-1
 177 714 l 1,2,-1
 177 450 l 1,3,-1
 179 450 l 1,4,5
 202 487 202 487 245 509 c 128,-1,6
 288 531 288 531 333 531 c 0,7,8
 450 531 450 531 515 450 c 0,9,10
 575 376 575 376 575 256 c 0,11,12
 575 143 575 143 521 69 c 0,13,14
 460 -14 460 -14 352 -14 c 0,15,16
 229 -14 229 -14 179 67 c 1,17,-1
 177 67 l 1,18,-1
 177 -191 l 1,19,-1
 63 -191 l 1,0,-1
461 258 m 0,20,21
 461 333 461 333 425 385 c 0,22,23
 385 441 385 441 318 441 c 0,24,25
 248 441 248 441 210.5 392 c 128,-1,26
 173 343 173 343 173 258 c 0,27,28
 173 178 173 178 212 127 c 128,-1,29
 251 76 251 76 318 76 c 0,30,31
 390 76 390 76 429 133 c 0,32,33
 461 182 461 182 461 258 c 0,20,21
EndSplineSet
EndChar

StartChar: dotlessi
Encoding: 305 305 189
Width: 241
Flags: W
LayerCount: 2
Fore
SplineSet
177 0 m 1,0,-1
 63 0 l 1,1,-1
 63 517 l 1,2,-1
 177 517 l 1,3,-1
 177 0 l 1,0,-1
EndSplineSet
EndChar

StartChar: Lslash
Encoding: 321 321 190
Width: 574
Flags: W
LayerCount: 2
Fore
SplineSet
76 317 m 1,0,-1
 76 714 l 1,1,-1
 201 714 l 1,2,-1
 201 408 l 1,3,-1
 401 550 l 1,4,-1
 401 457 l 1,5,-1
 201 315 l 1,6,-1
 201 108 l 1,7,-1
 564 108 l 1,8,-1
 564 0 l 1,9,-1
 76 0 l 1,10,-1
 76 227 l 1,11,-1
 0 173 l 1,12,-1
 0 263 l 1,13,-1
 76 317 l 1,0,-1
EndSplineSet
EndChar

StartChar: lslash
Encoding: 322 322 191
Width: 241
Flags: W
LayerCount: 2
Fore
SplineSet
63 0 m 1,0,-1
 63 319 l 1,1,-1
 -5 266 l 1,2,-1
 -5 337 l 1,3,-1
 63 390 l 1,4,-1
 63 714 l 1,5,-1
 177 714 l 1,6,-1
 177 479 l 1,7,-1
 245 533 l 1,8,-1
 245 461 l 1,9,-1
 177 407 l 1,10,-1
 177 0 l 1,11,-1
 63 0 l 1,0,-1
EndSplineSet
EndChar

StartChar: OE
Encoding: 338 338 192
Width: 1093
Flags: W
LayerCount: 2
Fore
SplineSet
552 219 m 2,0,-1
 552 485 l 2,1,2
 552 545 552 545 510 585 c 0,3,4
 463 629 463 629 381 629 c 0,5,6
 275 629 275 629 217 542 c 0,7,8
 166 467 166 467 166 356 c 256,9,10
 166 245 166 245 217 171 c 0,11,12
 275 85 275 85 381 85 c 0,13,14
 457 85 457 85 507 130 c 0,15,16
 552 170 552 170 552 219 c 2,0,-1
671 606 m 1,17,-1
 671 419 l 1,18,-1
 1014 419 l 1,19,-1
 1014 317 l 1,20,-1
 671 317 l 1,21,-1
 671 108 l 1,22,-1
 1052 108 l 1,23,-1
 1052 0 l 1,24,-1
 557 0 l 1,25,-1
 557 64 l 1,26,27
 488 -17 488 -17 369 -17 c 0,28,29
 216 -17 216 -17 126 94 c 0,30,31
 41 198 41 198 41 354 c 0,32,33
 41 512 41 512 129 618 c 0,34,35
 222 731 222 731 377 731 c 0,36,37
 492 731 492 731 557 657 c 1,38,-1
 557 714 l 1,39,-1
 1045 714 l 1,40,-1
 1045 606 l 1,41,-1
 671 606 l 1,17,-1
EndSplineSet
EndChar

StartChar: oe
Encoding: 339 339 193
Width: 907
Flags: W
LayerCount: 2
Fore
SplineSet
883 229 m 1,0,-1
 505 229 l 1,1,2
 506 161 506 161 538 121 c 0,3,4
 574 76 574 76 640 76 c 0,5,6
 685 76 685 76 720 99 c 128,-1,7
 755 122 755 122 763 164 c 1,8,-1
 877 164 l 1,9,10
 856 78 856 78 794 32 c 128,-1,11
 732 -14 732 -14 642 -14 c 0,12,13
 506 -14 506 -14 457 81 c 1,14,15
 408 -14 408 -14 273 -14 c 0,16,17
 158 -14 158 -14 94 68 c 0,18,19
 35 142 35 142 35 260 c 0,20,21
 35 376 35 376 99 451 c 0,22,23
 167 531 167 531 282 531 c 0,24,25
 414 531 414 531 463 444 c 1,26,27
 518 531 518 531 644 531 c 256,28,29
 770 531 770 531 831 440 c 0,30,31
 883 363 883 363 883 229 c 1,0,-1
635 441 m 0,32,33
 579 441 579 441 543 401 c 128,-1,34
 507 361 507 361 505 304 c 1,35,-1
 769 304 l 1,36,37
 761 441 761 441 635 441 c 0,32,33
281 441 m 256,38,39
 214 441 214 441 179 383 c 0,40,41
 149 334 149 334 149 262 c 0,42,43
 149 76 149 76 281 76 c 256,44,45
 413 76 413 76 413 262 c 0,46,47
 413 334 413 334 383 383 c 0,48,49
 348 441 348 441 281 441 c 256,38,39
EndSplineSet
EndChar

StartChar: florin
Encoding: 402 402 199
Width: 556
Flags: W
LayerCount: 2
Fore
SplineSet
116 353 m 1,0,-1
 131 438 l 1,1,-1
 223 438 l 1,2,-1
 255 606 l 2,3,4
 279 731 279 731 431 731 c 0,5,6
 464 731 464 731 504 726 c 1,7,-1
 487 636 l 1,8,9
 464 641 464 641 446 641 c 0,10,11
 405 641 405 641 388 625 c 128,-1,12
 371 609 371 609 363 568 c 2,13,-1
 338 438 l 1,14,-1
 440 438 l 1,15,-1
 425 353 l 1,16,-1
 323 353 l 1,17,-1
 250 -28 l 2,18,19
 239 -87 239 -87 190.5 -128.5 c 128,-1,20
 142 -170 142 -170 79 -170 c 0,21,22
 45 -170 45 -170 0 -165 c 1,23,-1
 15 -75 l 1,24,25
 42 -80 42 -80 63 -80 c 0,26,27
 121 -80 121 -80 132 -24 c 2,28,-1
 207 353 l 1,29,-1
 116 353 l 1,0,-1
EndSplineSet
EndChar

StartChar: circumflex
Encoding: 710 710 200
Width: 241
Flags: W
LayerCount: 2
Fore
SplineSet
120 678 m 1,0,-1
 50 588 l 1,1,-1
 -42 588 l 1,2,-1
 65 731 l 1,3,-1
 176 731 l 1,4,-1
 284 588 l 1,5,-1
 191 588 l 1,6,-1
 120 678 l 1,0,-1
EndSplineSet
EndChar

StartChar: caron
Encoding: 711 711 201
Width: 241
Flags: W
LayerCount: 2
Fore
SplineSet
284 731 m 1,0,-1
 176 588 l 1,1,-1
 65 588 l 1,2,-1
 -42 731 l 1,3,-1
 50 731 l 1,4,-1
 120 642 l 1,5,-1
 191 731 l 1,6,-1
 284 731 l 1,0,-1
EndSplineSet
EndChar

StartChar: macron
Encoding: 175 175 202
AltUni2: 0002c9.ffffffff.0
Width: 241
Flags: W
LayerCount: 2
Fore
SplineSet
265 619 m 1,0,-1
 -23 619 l 1,1,-1
 -23 684 l 1,2,-1
 265 684 l 1,3,-1
 265 619 l 1,0,-1
EndSplineSet
EndChar

StartChar: breve
Encoding: 728 728 203
Width: 241
Flags: W
LayerCount: 2
Fore
SplineSet
-41 731 m 1,0,-1
 17 731 l 1,1,2
 32 655 32 655 124 655 c 0,3,4
 209 655 209 655 225 731 c 1,5,-1
 282 731 l 1,6,7
 275 662 275 662 231 626 c 128,-1,8
 187 590 187 590 116 590 c 0,9,10
 -29 590 -29 590 -41 731 c 1,0,-1
EndSplineSet
EndChar

StartChar: dotaccent
Encoding: 729 729 204
Width: 241
Flags: W
LayerCount: 2
Fore
SplineSet
178 599 m 1,0,-1
 64 599 l 1,1,-1
 64 707 l 1,2,-1
 178 707 l 1,3,-1
 178 599 l 1,0,-1
EndSplineSet
EndChar

StartChar: ring
Encoding: 730 730 205
Width: 241
Flags: W
LayerCount: 2
Fore
SplineSet
121 549 m 0,0,1
 80 549 80 549 49 580 c 128,-1,2
 18 611 18 611 18 652 c 0,3,4
 18 694 18 694 49 724.5 c 128,-1,5
 80 755 80 755 121 755 c 0,6,7
 163 755 163 755 193.5 724.5 c 128,-1,8
 224 694 224 694 224 652 c 0,9,10
 224 611 224 611 193.5 580 c 128,-1,11
 163 549 163 549 121 549 c 0,0,1
60 652 m 0,12,13
 60 628 60 628 78.5 609.5 c 128,-1,14
 97 591 97 591 121 591 c 0,15,16
 146 591 146 591 164 609.5 c 128,-1,17
 182 628 182 628 182 652 c 0,18,19
 182 677 182 677 164 695 c 128,-1,20
 146 713 146 713 121 713 c 0,21,22
 97 713 97 713 78.5 695 c 128,-1,23
 60 677 60 677 60 652 c 0,12,13
EndSplineSet
EndChar

StartChar: ogonek
Encoding: 731 731 206
Width: 241
Flags: W
LayerCount: 2
Fore
SplineSet
162 3 m 1,0,-1
 216 3 l 1,1,2
 122 -70 122 -70 122 -124 c 0,3,4
 122 -144 122 -144 133.5 -156 c 128,-1,5
 145 -168 145 -168 161 -168 c 0,6,7
 190 -168 190 -168 214 -135 c 1,8,-1
 254 -143 l 1,9,10
 233 -218 233 -218 149 -218 c 0,11,12
 117 -218 117 -218 91 -205 c 0,13,14
 48 -182 48 -182 48 -128 c 0,15,16
 48 -65 48 -65 162 3 c 1,0,-1
EndSplineSet
EndChar

StartChar: tilde
Encoding: 732 732 207
Width: 241
Flags: W
LayerCount: 2
Fore
SplineSet
241 714 m 1,0,-1
 241 714 l 1,1,-1
 297 714 l 1,2,3
 279 599 279 599 186 599 c 0,4,5
 163 599 163 599 113.5 617.5 c 128,-1,6
 64 636 64 636 43 636 c 0,7,8
 26 636 26 636 13.5 623 c 128,-1,9
 1 610 1 610 1 595 c 1,10,-1
 -56 595 l 1,11,12
 -49 639 -49 639 -24 671 c 0,13,14
 6 708 6 708 48 708 c 0,15,16
 81 708 81 708 127.5 689 c 128,-1,17
 174 670 174 670 191 670 c 0,18,19
 229 670 229 670 241 714 c 1,0,-1
EndSplineSet
EndChar

StartChar: hungarumlaut
Encoding: 733 733 208
Width: 241
Flags: W
LayerCount: 2
Fore
SplineSet
-35 588 m 1,0,-1
 55 731 l 1,1,-1
 191 731 l 1,2,-1
 47 588 l 1,3,-1
 -35 588 l 1,0,-1
164 588 m 1,4,-1
 254 731 l 1,5,-1
 390 731 l 1,6,-1
 246 588 l 1,7,-1
 164 588 l 1,4,-1
EndSplineSet
EndChar

StartChar: mu
Encoding: 181 181 209
AltUni2: 0003bc.ffffffff.0
Width: 574
Flags: W
LayerCount: 2
Fore
SplineSet
514 517 m 1,0,-1
 514 0 l 1,1,-1
 402 0 l 1,2,-1
 402 72 l 1,3,-1
 400 72 l 1,4,5
 380 34 380 34 340 10 c 128,-1,6
 300 -14 300 -14 264 -14 c 0,7,8
 205 -14 205 -14 174 22 c 1,9,-1
 174 -191 l 1,10,-1
 60 -191 l 1,11,-1
 60 517 l 1,12,-1
 174 517 l 1,13,-1
 174 200 l 2,14,15
 174 76 174 76 273 76 c 0,16,17
 400 76 400 76 400 217 c 2,18,-1
 400 517 l 1,19,-1
 514 517 l 1,0,-1
EndSplineSet
EndChar

StartChar: endash
Encoding: 8211 8211 210
Width: 500
Flags: W
LayerCount: 2
Fore
SplineSet
0 218 m 1,0,-1
 0 326 l 1,1,-1
 500 326 l 1,2,-1
 500 218 l 1,3,-1
 0 218 l 1,0,-1
EndSplineSet
EndChar

StartChar: emdash
Encoding: 8212 8212 211
Width: 1000
Flags: W
LayerCount: 2
Fore
SplineSet
0 218 m 1,0,-1
 0 326 l 1,1,-1
 1000 326 l 1,2,-1
 1000 218 l 1,3,-1
 0 218 l 1,0,-1
EndSplineSet
EndChar

StartChar: quoteleft
Encoding: 8216 8216 212
Width: 278
Flags: W
LayerCount: 2
Fore
SplineSet
202 714 m 1,0,-1
 202 714 l 1,1,-1
 202 656 l 1,2,3
 141 635 141 635 141 567 c 1,4,-1
 202 567 l 1,5,-1
 202 432 l 1,6,-1
 77 432 l 1,7,-1
 77 567 l 2,8,9
 77 621 77 621 114 662 c 0,10,11
 147 698 147 698 202 714 c 1,0,-1
EndSplineSet
EndChar

StartChar: quoteright
Encoding: 8217 8217 213
Width: 278
Flags: W
LayerCount: 2
Fore
SplineSet
77 432 m 1,0,-1
 77 432 l 1,1,-1
 77 490 l 1,2,3
 138 498 138 498 138 579 c 1,4,-1
 77 579 l 1,5,-1
 77 714 l 1,6,-1
 202 714 l 1,7,-1
 202 579 l 2,8,9
 202 521 202 521 168 480 c 128,-1,10
 134 439 134 439 77 432 c 1,0,-1
EndSplineSet
EndChar

StartChar: quotesinglbase
Encoding: 8218 8218 214
Width: 278
Flags: W
LayerCount: 2
Fore
SplineSet
77 -147 m 1,0,-1
 77 -147 l 1,1,-1
 77 -89 l 1,2,3
 138 -68 138 -68 138 0 c 1,4,-1
 77 0 l 1,5,-1
 77 135 l 1,6,-1
 202 135 l 1,7,-1
 202 0 l 2,8,9
 202 -54 202 -54 165 -95 c 0,10,11
 132 -131 132 -131 77 -147 c 1,0,-1
EndSplineSet
EndChar

StartChar: quotedblleft
Encoding: 8220 8220 215
Width: 444
Flags: W
LayerCount: 2
Fore
SplineSet
185 714 m 1,0,-1
 185 714 l 1,1,-1
 185 656 l 1,2,3
 124 635 124 635 124 567 c 1,4,-1
 185 567 l 1,5,-1
 185 432 l 1,6,-1
 60 432 l 1,7,-1
 60 567 l 2,8,9
 60 621 60 621 97 662 c 0,10,11
 130 698 130 698 185 714 c 1,0,-1
384 714 m 1,12,-1
 384 714 l 1,13,-1
 384 656 l 1,14,15
 323 635 323 635 323 567 c 1,16,-1
 384 567 l 1,17,-1
 384 432 l 1,18,-1
 259 432 l 1,19,-1
 259 567 l 2,20,21
 259 621 259 621 296 662 c 0,22,23
 329 698 329 698 384 714 c 1,12,-1
EndSplineSet
EndChar

StartChar: quotedblright
Encoding: 8221 8221 216
Width: 444
Flags: W
LayerCount: 2
Fore
SplineSet
60 432 m 1,0,-1
 60 432 l 1,1,-1
 60 490 l 1,2,3
 121 511 121 511 121 579 c 1,4,-1
 60 579 l 1,5,-1
 60 714 l 1,6,-1
 185 714 l 1,7,-1
 185 579 l 2,8,9
 185 525 185 525 148 485 c 0,10,11
 115 448 115 448 60 432 c 1,0,-1
259 432 m 1,12,-1
 259 432 l 1,13,-1
 259 490 l 1,14,15
 320 511 320 511 320 579 c 1,16,-1
 259 579 l 1,17,-1
 259 714 l 1,18,-1
 384 714 l 1,19,-1
 384 579 l 2,20,21
 384 525 384 525 347 485 c 0,22,23
 314 448 314 448 259 432 c 1,12,-1
EndSplineSet
EndChar

StartChar: quotedblbase
Encoding: 8222 8222 217
Width: 444
Flags: W
LayerCount: 2
Fore
SplineSet
60 -147 m 1,0,-1
 60 -147 l 1,1,-1
 60 -89 l 1,2,3
 121 -68 121 -68 121 0 c 1,4,-1
 60 0 l 1,5,-1
 60 135 l 1,6,-1
 185 135 l 1,7,-1
 185 0 l 2,8,9
 185 -54 185 -54 148 -95 c 0,10,11
 115 -131 115 -131 60 -147 c 1,0,-1
259 -147 m 1,12,-1
 259 -147 l 1,13,-1
 259 -89 l 1,14,15
 320 -68 320 -68 320 0 c 1,16,-1
 259 0 l 1,17,-1
 259 135 l 1,18,-1
 384 135 l 1,19,-1
 384 0 l 2,20,21
 384 -54 384 -54 347 -95 c 0,22,23
 314 -131 314 -131 259 -147 c 1,12,-1
EndSplineSet
EndChar

StartChar: dagger
Encoding: 8224 8224 218
Width: 556
Flags: W
LayerCount: 2
Fore
SplineSet
221 -160 m 1,0,-1
 221 422 l 1,1,-1
 30 422 l 1,2,-1
 30 517 l 1,3,-1
 221 517 l 1,4,-1
 221 714 l 1,5,-1
 335 714 l 1,6,-1
 335 517 l 1,7,-1
 526 517 l 1,8,-1
 526 422 l 1,9,-1
 335 422 l 1,10,-1
 335 -160 l 1,11,-1
 221 -160 l 1,0,-1
EndSplineSet
EndChar

StartChar: daggerdbl
Encoding: 8225 8225 219
Width: 556
Flags: W
LayerCount: 2
Fore
SplineSet
221 -160 m 1,0,-1
 221 37 l 1,1,-1
 30 37 l 1,2,-1
 30 132 l 1,3,-1
 221 132 l 1,4,-1
 221 422 l 1,5,-1
 30 422 l 1,6,-1
 30 517 l 1,7,-1
 221 517 l 1,8,-1
 221 714 l 1,9,-1
 335 714 l 1,10,-1
 335 517 l 1,11,-1
 526 517 l 1,12,-1
 526 422 l 1,13,-1
 335 422 l 1,14,-1
 335 132 l 1,15,-1
 526 132 l 1,16,-1
 526 37 l 1,17,-1
 335 37 l 1,18,-1
 335 -160 l 1,19,-1
 221 -160 l 1,0,-1
EndSplineSet
EndChar

StartChar: bullet
Encoding: 8226 8226 220
Width: 500
Flags: W
LayerCount: 2
Fore
SplineSet
72 357 m 256,0,1
 72 431 72 431 124 483 c 128,-1,2
 176 535 176 535 250 535 c 256,3,4
 324 535 324 535 376.5 483 c 128,-1,5
 429 431 429 431 429 357 c 256,6,7
 429 283 429 283 376.5 230.5 c 128,-1,8
 324 178 324 178 250 178 c 256,9,10
 176 178 176 178 124 230.5 c 128,-1,11
 72 283 72 283 72 357 c 256,0,1
EndSplineSet
EndChar

StartChar: ellipsis
Encoding: 8230 8230 221
Width: 1000
Flags: W
LayerCount: 2
Fore
SplineSet
97 0 m 1,0,-1
 97 135 l 1,1,-1
 236 135 l 1,2,-1
 236 0 l 1,3,-1
 97 0 l 1,0,-1
430 0 m 1,4,-1
 430 135 l 1,5,-1
 569 135 l 1,6,-1
 569 0 l 1,7,-1
 430 0 l 1,4,-1
763 0 m 1,8,-1
 763 135 l 1,9,-1
 902 135 l 1,10,-1
 902 0 l 1,11,-1
 763 0 l 1,8,-1
EndSplineSet
EndChar

StartChar: perthousand
Encoding: 8240 8240 222
Width: 1148
Flags: W
LayerCount: 2
Fore
SplineSet
231 714 m 256,0,1
 305 714 305 714 345 661 c 0,2,3
 380 613 380 613 380 535 c 0,4,5
 380 468 380 468 348 424 c 0,6,7
 308 371 308 371 231 371 c 256,8,9
 154 371 154 371 115 424 c 0,10,11
 82 468 82 468 82 535 c 0,12,13
 82 613 82 613 118 661 c 0,14,15
 157 714 157 714 231 714 c 256,0,1
231 654 m 256,16,17
 167 654 167 654 167 532 c 0,18,19
 167 431 167 431 231 431 c 256,20,21
 295 431 295 431 295 532 c 0,22,23
 295 654 295 654 231 654 c 256,16,17
165 -24 m 1,24,-1
 563 724 l 1,25,-1
 636 724 l 1,26,-1
 236 -24 l 1,27,-1
 165 -24 l 1,24,-1
576 -14 m 256,28,29
 505 -14 505 -14 464 35 c 0,30,31
 427 81 427 81 427 154 c 0,32,33
 427 230 427 230 463 277 c 0,34,35
 502 329 502 329 576 329 c 256,36,37
 650 329 650 329 690 277 c 0,38,39
 725 230 725 230 725 154 c 0,40,41
 725 81 725 81 688 35 c 0,42,43
 647 -14 647 -14 576 -14 c 256,28,29
576 46 m 256,44,45
 640 46 640 46 640 151 c 0,46,47
 640 269 640 269 576 269 c 256,48,49
 512 269 512 269 512 151 c 0,50,51
 512 46 512 46 576 46 c 256,44,45
917 -14 m 256,52,53
 840 -14 840 -14 801 41 c 0,54,55
 768 86 768 86 768 154 c 0,56,57
 768 231 768 231 804 278 c 0,58,59
 843 329 843 329 917 329 c 256,60,61
 991 329 991 329 1031 278 c 0,62,63
 1066 231 1066 231 1066 154 c 0,64,65
 1066 86 1066 86 1034 41 c 0,66,67
 994 -14 994 -14 917 -14 c 256,52,53
917 46 m 256,68,69
 981 46 981 46 981 151 c 0,70,71
 981 269 981 269 917 269 c 256,72,73
 853 269 853 269 853 151 c 0,74,75
 853 46 853 46 917 46 c 256,68,69
EndSplineSet
EndChar

StartChar: guilsinglleft
Encoding: 8249 8249 223
Width: 259
Flags: W
LayerCount: 2
Fore
SplineSet
205 93 m 1,0,-1
 50 216 l 1,1,-1
 50 328 l 1,2,-1
 205 451 l 1,3,-1
 205 348 l 1,4,-1
 110 272 l 1,5,-1
 205 196 l 1,6,-1
 205 93 l 1,0,-1
EndSplineSet
EndChar

StartChar: guilsinglright
Encoding: 8250 8250 224
Width: 259
Flags: W
LayerCount: 2
Fore
SplineSet
54 451 m 1,0,-1
 209 328 l 1,1,-1
 209 216 l 1,2,-1
 54 93 l 1,3,-1
 54 196 l 1,4,-1
 149 272 l 1,5,-1
 54 348 l 1,6,-1
 54 451 l 1,0,-1
EndSplineSet
EndChar

StartChar: fraction
Encoding: 8260 8260 225
Width: 167
Flags: W
LayerCount: 2
Fore
SplineSet
-165 -24 m 1,0,-1
 254 724 l 1,1,-1
 332 724 l 1,2,-1
 -86 -24 l 1,3,-1
 -165 -24 l 1,0,-1
EndSplineSet
EndChar

StartChar: trademark
Encoding: 8482 8482 226
Width: 990
Flags: W
LayerCount: 2
Fore
SplineSet
391 714 m 1,0,-1
 391 649 l 1,1,-1
 265 649 l 1,2,-1
 265 302 l 1,3,-1
 185 302 l 1,4,-1
 185 649 l 1,5,-1
 59 649 l 1,6,-1
 59 714 l 1,7,-1
 391 714 l 1,0,-1
591 714 m 1,8,-1
 704 422 l 1,9,-1
 816 714 l 1,10,-1
 931 714 l 1,11,-1
 931 302 l 1,12,-1
 856 302 l 1,13,-1
 856 624 l 1,14,-1
 854 624 l 1,15,-1
 731 302 l 1,16,-1
 675 302 l 1,17,-1
 552 624 l 1,18,-1
 550 624 l 1,19,-1
 550 302 l 1,20,-1
 475 302 l 1,21,-1
 475 714 l 1,22,-1
 591 714 l 1,8,-1
EndSplineSet
EndChar

StartChar: minus
Encoding: 173 173 227
AltUni2: 002212.ffffffff.0
Width: 600
Flags: W
LayerCount: 2
Fore
SplineSet
552 202 m 1,0,-1
 48 202 l 1,1,-1
 48 304 l 1,2,-1
 552 304 l 1,3,-1
 552 202 l 1,0,-1
EndSplineSet
EndChar

StartChar: periodcentered
Encoding: 183 183 228
AltUni2: 002219.ffffffff.0
Width: 278
Flags: W
LayerCount: 2
Fore
SplineSet
64 302 m 0,0,1
 64 331 64 331 87 353.5 c 128,-1,2
 110 376 110 376 139 376 c 0,3,4
 169 376 169 376 191.5 353.5 c 128,-1,5
 214 331 214 331 214 302 c 0,6,7
 214 272 214 272 191.5 249 c 128,-1,8
 169 226 169 226 139 226 c 256,9,10
 109 226 109 226 86.5 249 c 128,-1,11
 64 272 64 272 64 302 c 0,0,1
EndSplineSet
EndChar

StartChar: fi
Encoding: 61441 61441 229
Width: 556
Flags: W
LayerCount: 2
Fore
SplineSet
378 0 m 1,0,-1
 378 517 l 1,1,-1
 492 517 l 1,2,-1
 492 0 l 1,3,-1
 378 0 l 1,0,-1
9 432 m 1,4,-1
 9 517 l 1,5,-1
 94 517 l 1,6,-1
 94 560 l 2,7,8
 94 650 94 650 138 687 c 0,9,10
 171 714 171 714 237 714 c 0,11,12
 292 714 292 714 317 707 c 1,13,-1
 317 618 l 1,14,15
 295 624 295 624 264 624 c 0,16,17
 208 624 208 624 208 570 c 2,18,-1
 208 517 l 1,19,-1
 305 517 l 1,20,-1
 305 432 l 1,21,-1
 208 432 l 1,22,-1
 208 0 l 1,23,-1
 94 0 l 1,24,-1
 94 432 l 1,25,-1
 9 432 l 1,4,-1
378 606 m 1,26,-1
 378 714 l 1,27,-1
 492 714 l 1,28,-1
 492 606 l 1,29,-1
 378 606 l 1,26,-1
EndSplineSet
EndChar

StartChar: fl
Encoding: 61442 61442 230
Width: 556
Flags: W
LayerCount: 2
Fore
SplineSet
9 432 m 1,0,-1
 9 517 l 1,1,-1
 94 517 l 1,2,-1
 94 560 l 2,3,4
 94 650 94 650 138 687 c 0,5,6
 171 714 171 714 237 714 c 0,7,8
 292 714 292 714 317 707 c 1,9,-1
 317 618 l 1,10,11
 295 624 295 624 264 624 c 0,12,13
 208 624 208 624 208 570 c 2,14,-1
 208 517 l 1,15,-1
 305 517 l 1,16,-1
 305 432 l 1,17,-1
 208 432 l 1,18,-1
 208 0 l 1,19,-1
 94 0 l 1,20,-1
 94 432 l 1,21,-1
 9 432 l 1,0,-1
378 0 m 1,22,-1
 378 714 l 1,23,-1
 492 714 l 1,24,-1
 492 0 l 1,25,-1
 378 0 l 1,22,-1
EndSplineSet
EndChar

